<?xml version="1.0" standalone="no"?>
<!DOCTYPE svg PUBLIC "-//W3C//DTD SVG 20010904//EN"
 "http://www.w3.org/TR/2001/REC-SVG-20010904/DTD/svg10.dtd">
<svg version="1.0" xmlns="http://www.w3.org/2000/svg"
 width="1080.000000pt" height="1080.000000pt" viewBox="0 0 1080.000000 1080.000000"
 preserveAspectRatio="xMidYMid meet">

<g transform="translate(0.000000,1080.000000) scale(0.100000,-0.100000)"
fill="#000000" stroke="none">
<path d="M5293 9709 c-171 -29 -347 -156 -427 -309 -63 -120 -69 -152 -75
-409 l-6 -235 -37 61 c-77 124 -222 230 -368 268 -80 21 -225 21 -302 0 -167
-44 -315 -165 -388 -316 -74 -154 -70 -52 -70 -1738 0 -1437 -1 -1513 -17
-1506 -43 17 -171 45 -251 56 -110 15 -361 6 -462 -16 -185 -40 -372 -119
-525 -220 -101 -67 -205 -161 -205 -185 0 -13 19 -29 58 -50 248 -132 464
-415 586 -768 69 -200 106 -376 191 -907 38 -238 71 -395 115 -546 167 -582
575 -1075 1109 -1344 568 -285 1555 -316 2202 -70 493 188 939 622 1163 1131
112 255 165 475 256 1069 76 497 178 807 347 1063 99 149 257 299 400 378 32
17 53 36 53 46 0 35 -221 204 -359 273 -311 156 -697 198 -1017 110 l-84 -23
-2 1537 -3 1536 -23 70 c-72 213 -230 368 -431 420 -73 19 -213 22 -284 5
-160 -36 -299 -133 -386 -271 l-39 -62 -4 229 c-4 215 -6 234 -31 310 -95 287
-385 463 -684 413z m-53 -96 c-45 -39 -90 -120 -90 -165 0 -44 -9 -59 -30 -48
-30 16 -53 77 -46 125 6 38 12 45 56 69 53 29 117 54 139 55 8 1 -5 -16 -29
-36z m300 27 c0 -5 -2 -10 -4 -10 -3 0 -8 5 -11 10 -3 6 -1 10 4 10 6 0 11 -4
11 -10z m-133 -16 c-3 -3 -12 -4 -19 -1 -8 3 -5 6 6 6 11 1 17 -2 13 -5z m26
-41 c8 -10 36 -80 62 -156 38 -113 45 -145 40 -178 -8 -49 -35 -79 -70 -79
-32 0 -41 23 -21 52 22 31 20 54 -9 134 -14 38 -28 76 -31 84 -8 20 -64 -135
-64 -176 0 -18 5 -36 10 -39 6 -3 10 -17 10 -31 0 -20 -5 -24 -30 -24 -37 0
-70 47 -70 98 0 44 77 275 102 307 23 29 49 32 71 8z m-153 -7 c0 -2 -8 -10
-17 -17 -16 -13 -17 -12 -4 4 13 16 21 21 21 13z m-240 -155 c8 -16 4 -20 -38
-31 -26 -6 -58 -18 -70 -26 -13 -9 -26 -13 -29 -11 -6 7 39 77 79 123 l33 37
7 -37 c4 -21 12 -45 18 -55z m821 -4 c22 -33 38 -62 35 -64 -2 -2 -22 5 -45
16 -22 12 -48 21 -58 21 -38 0 -42 12 -25 67 15 50 17 52 34 36 11 -9 37 -44
59 -76z m-199 3 c3 -16 1 -30 -4 -30 -4 0 -8 14 -8 30 0 17 2 30 4 30 2 0 6
-13 8 -30z m48 16 c0 -2 -8 -10 -17 -17 -16 -13 -17 -12 -4 4 13 16 21 21 21
13z m-113 -78 c-3 -8 -6 -5 -6 6 -1 11 2 17 5 13 3 -3 4 -12 1 -19z m-484 -19
c51 -14 46 -23 -16 -27 -74 -4 -153 -43 -211 -105 -29 -31 -47 -44 -43 -32 3
11 8 35 12 53 4 17 11 32 16 32 6 0 27 14 49 31 39 32 100 58 135 59 11 0 37
-5 58 -11z m702 -8 c22 -10 51 -30 64 -45 14 -14 32 -26 41 -26 17 0 30 -36
30 -83 0 -18 -4 -16 -25 13 -51 69 -136 113 -240 124 -22 3 -42 5 -45 6 -3 1
11 8 30 15 49 19 98 18 145 -4z m-718 -137 c-3 -3 -12 -4 -19 -1 -8 3 -5 6 6
6 11 1 17 -2 13 -5z m50 0 c-3 -3 -12 -4 -19 -1 -8 3 -5 6 6 6 11 1 17 -2 13
-5z m520 0 c-3 -3 -12 -4 -19 -1 -8 3 -5 6 6 6 11 1 17 -2 13 -5z m50 0 c-3
-3 -12 -4 -19 -1 -8 3 -5 6 6 6 11 1 17 -2 13 -5z m-482 -44 c10 -11 16 -20
13 -20 -3 0 -13 9 -23 20 -10 11 -16 20 -13 20 3 0 13 -9 23 -20z m385 -34 c0
-2 -8 -10 -17 -17 -16 -13 -17 -12 -4 4 13 16 21 21 21 13z m-507 -37 c28 -15
37 -28 37 -58 0 -57 -82 -85 -114 -39 -22 32 -20 55 9 83 27 28 37 30 68 14z
m560 -17 c-10 -10 -20 -17 -22 -16 -6 5 20 34 30 34 5 0 1 -8 -8 -18z m-826
-1524 c-1 -282 -2 -54 -2 507 0 561 1 792 2 513 2 -278 2 -737 0 -1020z m616
1502 c51 -40 44 -126 -12 -155 -47 -24 -88 -19 -122 14 -42 43 -37 112 10 148
26 20 95 16 124 -7z m54 -27 c-3 -10 -5 -2 -5 17 0 19 2 27 5 18 2 -10 2 -26
0 -35z m60 0 c-3 -10 -5 -2 -5 17 0 19 2 27 5 18 2 -10 2 -26 0 -35z m-1260
31 c-3 -3 -12 -4 -19 -1 -8 3 -5 6 6 6 11 1 17 -2 13 -5z m1643 -999 c0 -553
-3 -1005 -7 -1005 -5 0 -7 452 -5 1005 1 553 4 1005 7 1005 3 0 5 -452 5
-1005z m559 979 c-41 -43 -135 -101 -201 -123 -81 -26 -148 -37 -148 -23 0 16
80 81 135 110 68 35 152 61 199 61 l39 1 -24 -26z m225 -30 c-4 -78 19 -273
42 -352 51 -177 150 -347 274 -472 48 -48 64 -71 62 -87 -2 -13 -8 -23 -13
-23 -23 0 -185 172 -239 252 -136 203 -220 455 -220 658 l0 78 48 -12 c43 -12
47 -15 46 -42z m-2687 -107 c-2 -23 -3 -1 -3 48 0 50 1 68 3 42 2 -26 2 -67 0
-90z m-67 -107 c-26 -162 -96 -330 -191 -456 -59 -80 -109 -134 -122 -134 -11
0 -4 386 8 413 5 12 19 17 47 17 50 0 90 21 119 62 31 43 32 120 2 168 l-22
35 40 33 c21 18 58 44 82 57 l42 25 3 -73 c2 -39 -2 -106 -8 -147z m157 158
c-2 -13 -4 -3 -4 22 0 25 2 35 4 23 2 -13 2 -33 0 -45z m750 -15 c-2 -16 -4
-3 -4 27 0 30 2 43 4 28 2 -16 2 -40 0 -55z m2025 -3 l39 -35 -21 -40 c-54
-105 14 -226 130 -229 49 -1 50 -4 50 -244 l0 -186 -31 30 c-169 160 -289 446
-289 692 l0 93 41 -23 c23 -13 59 -39 81 -58z m-1075 18 c-2 -13 -4 -5 -4 17
-1 22 1 32 4 23 2 -10 2 -28 0 -40z m-1613 -23 c34 -75 111 -149 199 -191 66
-32 69 -35 32 -30 -22 3 -99 6 -171 6 l-131 0 13 58 c8 31 17 92 20 135 4 42
8 77 10 77 1 0 14 -25 28 -55z m1673 23 c-3 -7 -5 -2 -5 12 0 14 2 19 5 13 2
-7 2 -19 0 -25z m696 -57 c3 -43 11 -100 18 -125 6 -26 10 -48 8 -50 -2 -2
-80 -6 -173 -8 -107 -3 -161 -1 -145 4 117 44 212 124 251 213 13 29 26 51 29
49 3 -2 9 -39 12 -83z m-2295 50 c57 -39 158 -83 226 -97 39 -9 72 -17 73 -18
2 -2 -4 -20 -12 -41 -16 -37 -17 -37 -58 -31 -91 14 -201 91 -250 175 -21 36
-16 39 21 12z m2193 -25 c-46 -75 -152 -145 -243 -161 -33 -6 -38 -4 -52 24
-9 16 -16 34 -16 39 0 5 24 14 53 20 73 15 153 46 217 85 30 18 57 32 59 31 2
-2 -6 -18 -18 -38z m-1544 2 c-3 -8 -6 -5 -6 6 -1 11 2 17 5 13 3 -3 4 -12 1
-19z m-327 -29 c0 -5 -10 -8 -22 -8 -18 1 -19 2 -5 6 15 4 16 7 5 21 -12 15
-11 16 5 3 9 -7 17 -17 17 -22z m-815 -68 c20 -40 10 -85 -27 -116 -17 -14
-42 -25 -59 -25 -26 0 -28 2 -19 25 19 51 76 145 87 145 1 0 9 -13 18 -29z
m3250 -69 c32 -63 31 -72 -2 -72 -70 1 -117 92 -77 148 l16 23 19 -25 c10 -13
30 -46 44 -74z m-2333 -8 c48 -101 48 -125 -1 -187 -99 -129 -263 -256 -382
-296 l-62 -21 75 78 c110 113 216 284 288 466 22 55 24 57 38 40 8 -11 27 -47
44 -80z m1433 1 c71 -174 171 -332 277 -438 74 -74 71 -76 -40 -26 -119 53
-256 167 -343 286 l-39 52 20 63 c17 57 76 166 84 157 2 -2 20 -44 41 -94z
m-840 75 c3 -6 -1 -7 -9 -4 -18 7 -21 14 -7 14 6 0 13 -4 16 -10z m172 4 c-3
-3 -12 -4 -19 -1 -8 3 -5 6 6 6 11 1 17 -2 13 -5z m48 -24 c10 -11 16 -20 13
-20 -3 0 -13 9 -23 20 -10 11 -16 20 -13 20 3 0 13 -9 23 -20z m-100 -75 c30
-29 31 -45 4 -79 -38 -48 -119 -22 -119 39 0 32 33 65 65 65 14 0 37 -11 50
-25z m-228 -27 c-3 -8 -6 -5 -6 6 -1 11 2 17 5 13 3 -3 4 -12 1 -19z m50 -25
c-3 -10 -5 -4 -5 12 0 17 2 24 5 18 2 -7 2 -21 0 -30z m320 -40 c-2 -16 -4 -5
-4 22 0 28 2 40 4 28 2 -13 2 -35 0 -50z m-1067 0 c0 -7 -129 -203 -134 -203
-2 0 -45 47 -96 105 l-91 105 160 0 c89 0 161 -3 161 -7z m2063 -6 c-22 -36
-167 -196 -174 -191 -12 7 -129 184 -129 195 0 5 66 9 155 9 126 0 154 -3 148
-13z m-1366 -34 c-3 -10 -5 -4 -5 12 0 17 2 24 5 18 2 -7 2 -21 0 -30z m-997
-78 c40 -47 71 -87 69 -89 -4 -4 -256 -66 -267 -66 -4 0 20 56 53 124 33 68
63 122 66 120 4 -2 39 -42 79 -89z m2535 -100 c15 -26 25 -49 22 -51 -2 -2
-66 10 -141 28 l-137 33 82 93 81 94 33 -76 c18 -41 45 -96 60 -121z m-1178
113 c-3 -7 -5 -2 -5 12 0 14 2 19 5 13 2 -7 2 -19 0 -25z m-280 -10 c-3 -8 -6
-5 -6 6 -1 11 2 17 5 13 3 -3 4 -12 1 -19z m-507 -36 c0 -45 -2 -48 -45 -75
-54 -32 -55 -32 -55 -8 0 16 85 131 96 131 2 0 4 -21 4 -48z m440 18 c0 -16
-4 -30 -8 -30 -5 0 -7 14 -4 30 2 17 6 30 8 30 2 0 4 -13 4 -30z m865 -78 c9
-19 14 -36 11 -39 -3 -3 -26 8 -51 23 -44 28 -45 30 -45 79 l0 50 35 -40 c19
-22 42 -55 50 -73z m-238 46 c-3 -7 -5 -2 -5 12 0 14 2 19 5 13 2 -7 2 -19 0
-25z m-840 -35 c-3 -10 -5 -2 -5 17 0 19 2 27 5 18 2 -10 2 -26 0 -35z m770
15 c-3 -8 -6 -5 -6 6 -1 11 2 17 5 13 3 -3 4 -12 1 -19z m-349 -16 c4 -30 -14
-52 -44 -52 -31 0 -49 32 -34 61 16 30 74 23 78 -9z m419 -14 c-3 -7 -5 -2 -5
12 0 14 2 19 5 13 2 -7 2 -19 0 -25z m-1069 -120 l-3 -73 -50 0 c-54 0 -53 -2
-46 73 1 15 72 69 94 71 4 1 7 -32 5 -71z m1295 30 c22 -16 27 -27 27 -59 l0
-39 -50 0 -50 0 0 70 c0 70 0 71 23 59 12 -7 34 -21 50 -31z m-1828 -38 c-38
-38 -75 -70 -82 -70 -15 0 -143 62 -143 70 0 5 252 68 280 69 8 1 -17 -30 -55
-69z m385 45 c0 -14 -2 -25 -4 -25 -2 0 -6 11 -8 25 -3 14 -1 25 3 25 5 0 9
-11 9 -25z m1552 8 c16 -14 18 -33 18 -163 0 -115 -3 -150 -14 -159 -12 -10
-15 -5 -20 26 -10 71 -18 313 -10 313 4 0 16 -7 26 -17z m425 -13 c70 -17 135
-33 143 -36 15 -6 -101 -73 -129 -74 -7 0 -36 20 -63 45 -49 44 -94 95 -84 95
2 0 62 -14 133 -30z m-2020 -62 c-2 -13 -4 -3 -4 22 0 25 2 35 4 23 2 -13 2
-33 0 -45z m494 35 c13 -16 12 -17 -3 -4 -10 7 -18 15 -18 17 0 8 8 3 21 -13z
m619 -6 c0 -2 -12 -14 -27 -28 l-28 -24 24 28 c23 25 31 32 31 24z m-1170
-112 c0 -58 -3 -105 -6 -105 -3 0 -14 5 -25 10 -16 9 -19 22 -19 92 0 65 3 83
18 94 9 7 20 14 25 14 4 0 7 -47 7 -105z m1753 91 c14 -11 17 -29 17 -94 0
-70 -3 -83 -19 -92 -11 -5 -22 -10 -25 -10 -3 0 -6 47 -6 105 0 58 3 105 8
105 4 0 15 -7 25 -14z m-851 -13 c22 -20 23 -42 2 -71 -29 -42 -104 -18 -104
34 0 49 64 72 102 37z m-387 -23 c10 -11 16 -20 13 -20 -3 0 -13 9 -23 20 -10
11 -16 20 -13 20 3 0 13 -9 23 -20z m782 -17 c-3 -10 -5 -4 -5 12 0 17 2 24 5
18 2 -7 2 -21 0 -30z m-1805 -14 c80 -40 81 -41 61 -58 -12 -9 -66 -51 -121
-93 l-99 -77 -28 19 c-15 10 -47 23 -70 30 l-42 12 101 103 c56 57 104 103
109 104 4 1 44 -17 89 -40z m1265 19 c-3 -8 -6 -5 -6 6 -1 11 2 17 5 13 3 -3
4 -12 1 -19z m1662 -80 c55 -55 100 -102 99 -103 -36 -20 -140 -55 -150 -49
-29 17 -218 167 -218 173 0 8 140 80 156 80 6 1 57 -45 113 -101z m-2522 -5
c-3 -2 -28 8 -57 22 -29 14 -50 28 -48 30 1 2 26 12 53 23 l50 20 3 -45 c2
-25 1 -47 -1 -50z m2031 52 c5 -5 -94 -55 -108 -55 -11 0 -14 82 -4 93 5 5
102 -28 112 -38z m-2678 31 c0 -2 -8 -10 -17 -17 -16 -13 -17 -12 -4 4 13 16
21 21 21 13z m1850 1 c0 -2 -10 -12 -22 -23 l-23 -19 19 23 c18 21 26 27 26
19z m-1013 -69 c-2 -13 -4 -3 -4 22 0 25 2 35 4 23 2 -13 2 -33 0 -45z m-787
49 c0 -1 -24 -25 -52 -52 l-53 -50 50 53 c46 48 55 57 55 49z m1721 -39 c2
-20 0 -40 -4 -44 -4 -4 -7 14 -7 41 0 56 7 57 11 3z m-64 -55 c-2 -16 -4 -3
-4 27 0 30 2 43 4 28 2 -16 2 -40 0 -55z m-1172 27 c33 -15 96 -54 140 -87 83
-63 305 -284 305 -304 0 -20 -79 -169 -115 -219 -20 -27 -62 -73 -94 -103 -57
-53 -199 -153 -206 -146 -1 2 14 32 35 67 21 35 48 91 60 125 28 79 37 224 20
309 -24 125 -106 265 -202 344 -26 22 -47 42 -47 46 -1 10 38 -2 104 -32z
m449 34 c12 -5 16 -21 16 -75 l0 -69 -60 30 -61 31 7 37 c4 20 9 40 11 45 5 8
65 9 87 1z m906 3 c0 -2 -10 -12 -22 -23 l-23 -19 19 23 c18 21 26 27 26 19z
m161 -12 c11 6 11 5 2 -5 -12 -14 -33 -6 -33 13 0 8 3 7 9 -2 5 -8 14 -10 22
-6z m277 -35 l3 -45 -56 -28 -55 -27 0 69 c0 77 3 81 65 78 l40 -2 3 -45z
m437 31 c3 -5 2 -12 -3 -15 -5 -3 -9 1 -9 9 0 17 3 19 12 6z m-2835 -5 c0 -2
-8 -10 -17 -17 -16 -13 -17 -12 -4 4 13 16 21 21 21 13z m1530 -16 c0 -11 -4
-20 -9 -20 -5 0 -7 9 -4 20 3 11 7 20 9 20 2 0 4 -9 4 -20z m-986 -82 c64 -65
139 -179 126 -192 -7 -6 -400 107 -400 115 0 9 181 149 193 149 5 0 42 -33 81
-72z m2451 0 c52 -40 91 -76 87 -79 -10 -9 -394 -121 -398 -116 -2 2 9 28 24
58 24 49 167 209 185 209 5 0 51 -33 102 -72z m-3033 37 c3 -14 1 -25 -3 -25
-5 0 -9 11 -9 25 0 14 2 25 4 25 2 0 6 -11 8 -25z m1523 -43 c-3 -3 -11 0 -18
7 -9 10 -8 11 6 5 10 -3 15 -9 12 -12z m-588 -34 c-3 -7 -5 -2 -5 12 0 14 2
19 5 13 2 -7 2 -19 0 -25z m173 -121 l0 -72 -60 65 c-50 55 -59 71 -60 103 l0
37 60 -30 60 -30 0 -73z m1337 76 c-3 -10 -5 -2 -5 17 0 19 2 27 5 18 2 -10 2
-26 0 -35z m-340 31 c-3 -3 -12 -4 -19 -1 -8 3 -5 6 6 6 11 1 17 -2 13 -5z
m-1977 -46 c79 -38 158 -116 195 -191 97 -199 9 -445 -196 -546 -35 -17 -81
-34 -102 -38 -35 -5 -37 -4 -37 20 0 22 10 31 63 56 75 36 158 119 189 188 32
72 36 192 9 265 -39 102 -125 190 -219 222 -29 10 -38 19 -40 41 -3 27 -3 27
35 21 21 -4 67 -21 103 -38z m3320 17 c0 -16 -7 -28 -17 -31 -100 -29 -187
-107 -235 -210 -28 -61 -30 -71 -26 -157 4 -75 9 -102 32 -145 37 -74 105
-138 181 -174 55 -25 65 -34 65 -55 0 -24 -2 -25 -42 -19 -114 18 -244 122
-300 242 -100 215 13 471 245 555 74 26 97 25 97 -6z m-2160 11 c0 -2 -8 -10
-17 -17 -16 -13 -17 -12 -4 4 13 16 21 21 21 13z m1130 -59 c0 -2 -12 -14 -27
-28 l-28 -24 24 28 c23 25 31 32 31 24z m-1954 -66 c92 -28 168 -52 171 -55 4
-4 -176 -108 -210 -121 -11 -5 -18 4 -27 32 -19 56 -55 126 -85 162 -15 17
-24 31 -21 31 3 0 81 -22 172 -49z m771 2 c-3 -10 -5 -2 -5 17 0 19 2 27 5 18
2 -10 2 -26 0 -35z m1884 12 c-36 -42 -64 -93 -81 -152 -7 -24 -17 -43 -21
-43 -9 0 -200 108 -213 120 -5 5 28 19 75 34 46 13 120 36 164 50 107 33 112
32 76 -9z m-1634 -7 c-3 -7 -5 -2 -5 12 0 14 2 19 5 13 2 -7 2 -19 0 -25z
m383 28 c0 -3 -4 -8 -10 -11 -5 -3 -10 -1 -10 4 0 6 5 11 10 11 6 0 10 -2 10
-4z m277 -28 c-3 -7 -5 -2 -5 12 0 14 2 19 5 13 2 -7 2 -19 0 -25z m-2099 3
c48 -25 114 -94 143 -151 20 -37 24 -60 24 -130 0 -94 -16 -136 -77 -206 -28
-31 -121 -94 -140 -94 -5 0 -8 37 -8 83 l0 83 36 13 c99 36 97 176 -3 217
l-33 14 0 95 c0 59 4 95 10 95 6 0 27 -9 48 -19z m2527 -31 c4 -6 -3 -35 -14
-66 -26 -68 -26 -89 -1 -165 12 -34 18 -64 15 -68 -4 -3 -24 13 -45 37 -60 67
-74 174 -34 254 8 14 19 28 26 31 15 5 44 -8 53 -23z m314 -170 l74 -43 -128
-54 c-70 -29 -129 -52 -131 -50 -2 1 -8 34 -14 72 -10 61 -6 156 6 177 3 4 30
-8 62 -26 31 -18 90 -52 131 -76z m524 97 c7 -19 -8 -41 -22 -33 -16 10 -14
46 3 46 8 0 16 -6 19 -13z m-2666 -54 c-3 -10 -5 -4 -5 12 0 17 2 24 5 18 2
-7 2 -21 0 -30z m2601 -1 c3 -16 -2 -22 -17 -22 -24 0 -35 15 -27 36 9 23 40
13 44 -14z m-1776 -40 c41 -41 47 -96 16 -142 -26 -39 -78 -61 -121 -53 -37 7
-84 55 -89 92 -17 114 114 184 194 103z m436 18 c59 -36 71 -119 25 -170 -69
-75 -184 -44 -200 53 -16 102 87 170 175 117z m-1974 -72 c9 -12 16 -30 16
-39 0 -19 -37 -69 -51 -69 -5 0 -9 29 -9 65 0 71 15 85 44 43z m713 -15 c-3
-10 -5 -4 -5 12 0 17 2 24 5 18 2 -7 2 -21 0 -30z m1653 -77 c6 -6 10 -30 10
-55 l0 -45 -40 39 c-39 38 -40 40 -40 110 l0 70 31 -55 c16 -30 34 -59 39 -64z
m910 89 c0 -18 -5 -25 -19 -25 -11 0 -23 5 -26 10 -11 18 3 40 25 40 15 0 20
-7 20 -25z m-2202 -47 l-1 -63 -6 55 c-4 30 -5 58 -3 63 9 19 12 2 10 -55z
m1529 20 c-3 -8 -6 -5 -6 6 -1 11 2 17 5 13 3 -3 4 -12 1 -19z m-2111 -55 c52
-21 94 -41 94 -44 0 -6 -253 -128 -257 -125 -1 1 8 29 21 61 13 33 27 79 31
103 4 23 9 42 12 42 4 0 48 -17 99 -37z m2491 5 c-3 -7 -5 -2 -5 12 0 14 2 19
5 13 2 -7 2 -19 0 -25z m303 -28 c0 -24 -26 -38 -42 -22 -16 16 -2 42 22 42
13 0 20 -7 20 -20z m-1946 -21 c50 -39 25 -119 -37 -119 -80 0 -93 105 -17
133 24 9 26 8 54 -14z m779 -11 c37 -44 9 -108 -48 -108 -54 0 -84 44 -65 94
18 48 77 55 113 14z m-1477 -87 c-15 -28 -52 -77 -84 -110 l-57 -60 -85 33
-85 34 165 79 c91 44 166 79 168 77 2 -1 -8 -25 -22 -53z m2259 -37 c78 -37
133 -69 125 -72 -8 -3 -47 -17 -87 -32 l-72 -28 -52 53 c-29 29 -68 81 -87
115 l-35 61 34 -14 c19 -8 97 -45 174 -83z m466 80 c17 -21 0 -49 -32 -49 -24
0 -36 23 -25 51 7 19 40 18 57 -2z m-2435 -361 c-2 -3 -16 3 -30 12 -26 17
-26 18 -26 153 0 135 0 136 28 165 l27 28 3 -177 c1 -97 1 -179 -2 -181z m144
287 l0 -70 -45 0 c-42 0 -45 2 -45 27 0 19 14 41 42 70 23 24 43 43 45 43 2 0
3 -31 3 -70z m1305 -36 c-2 -11 -4 -22 -4 -26 -1 -5 -19 -8 -41 -8 l-40 0 0
73 0 72 45 -46 c27 -29 42 -53 40 -65z m115 -84 l0 -136 -30 -17 -30 -18 0
182 0 183 30 -29 30 -29 0 -136z m61 163 c13 -16 12 -17 -3 -4 -10 7 -18 15
-18 17 0 8 8 3 21 -13z m700 0 c13 -16 12 -17 -3 -4 -10 7 -18 15 -18 17 0 8
8 3 21 -13z m-2438 -254 c-4 -5 -6 33 -3 84 l5 92 3 -84 c2 -46 -1 -88 -5 -92z
m1760 157 c26 -20 25 -141 -2 -156 -11 -5 -22 -10 -25 -10 -3 0 -6 41 -6 90 0
50 3 90 8 90 4 0 15 -7 25 -14z m-1109 -84 c-28 -26 -76 -69 -108 -95 -70 -60
-96 -109 -96 -179 1 -88 31 -139 176 -301 34 -38 76 -95 93 -127 34 -63 41
-89 14 -50 -43 64 -112 135 -196 203 -129 105 -167 161 -167 245 0 58 35 133
82 179 29 28 235 171 248 172 3 0 -18 -21 -46 -47z m488 -21 c162 -107 216
-173 226 -273 7 -70 -24 -124 -121 -211 -111 -99 -198 -185 -230 -227 -15 -19
-27 -30 -27 -24 0 24 80 139 159 226 108 121 135 172 136 259 0 87 -25 124
-149 223 -86 68 -115 96 -102 96 2 0 51 -31 108 -69z m-1232 18 c0 -32 -7 -34
-60 -15 l-35 13 40 20 c47 25 55 22 55 -18z m1975 -15 c-47 -20 -55 -17 -55
21 l0 35 43 -21 42 -22 -30 -13z m-2363 9 c54 -20 98 -39 98 -43 0 -7 -145
-140 -167 -153 -6 -4 -40 14 -78 43 -36 28 -79 57 -96 65 -16 9 -29 17 -29 19
0 2 24 16 53 31 30 14 67 37 83 50 16 14 31 24 33 25 2 0 48 -16 103 -37z
m2862 -8 c37 -25 74 -45 81 -45 33 0 21 -20 -27 -48 -29 -16 -73 -48 -98 -70
l-45 -40 -90 81 c-49 44 -91 83 -92 86 -2 5 178 78 198 80 4 1 37 -19 73 -44z
m-2124 -26 l0 -61 -42 25 c-36 21 -43 31 -46 61 l-3 36 45 0 46 0 0 -61z
m1305 23 c0 -28 -6 -36 -42 -58 l-43 -25 0 61 0 61 43 -3 c40 -3 42 -4 42 -36z
m-831 1 c-9 -16 -42 -65 -73 -111 -48 -73 -55 -91 -59 -143 -5 -65 3 -92 56
-182 18 -32 45 -84 58 -115 l24 -57 -32 40 c-18 22 -63 73 -100 114 -79 86
-108 141 -108 200 0 61 27 99 123 174 45 36 91 74 101 86 27 29 32 26 10 -6z
m401 -97 c138 -110 139 -191 4 -346 -35 -40 -80 -92 -98 -116 -19 -24 -37 -42
-39 -39 -2 2 28 65 67 140 99 190 97 216 -19 386 -33 48 -60 91 -60 95 0 5 19
-10 43 -32 23 -23 69 -62 102 -88z m176 77 c13 -16 12 -17 -3 -4 -10 7 -18 15
-18 17 0 8 8 3 21 -13z m-1384 -68 c114 -54 167 -90 260 -178 l73 -70 0 -302
0 -302 -72 -69 c-77 -73 -178 -145 -265 -189 -60 -30 -183 -77 -183 -70 0 3
25 37 56 77 69 89 136 226 166 338 32 121 33 348 1 466 -28 102 -70 195 -128
285 -53 82 -54 82 92 14z m838 -26 c-17 -79 -22 -234 -11 -339 l7 -65 -55 100
c-81 146 -79 167 34 332 19 28 36 50 38 49 1 -2 -5 -36 -13 -77z m322 -146 c4
-39 -1 -58 -22 -98 -15 -27 -41 -76 -57 -108 -17 -32 -32 -57 -34 -55 -2 3 1
31 6 64 14 87 12 231 -5 321 -8 43 -15 84 -15 91 0 8 28 -27 61 -77 49 -72 63
-100 66 -138z m825 175 c-68 -99 -131 -251 -153 -371 -6 -34 -11 -114 -11
-177 2 -196 66 -391 179 -539 26 -35 54 -72 62 -83 12 -17 6 -16 -60 8 -150
54 -267 128 -386 246 l-63 62 0 301 0 302 53 53 c61 61 142 125 209 163 51 30
191 88 196 82 2 -2 -9 -23 -26 -47z m-2136 -20 c44 -59 121 -204 113 -212 -2
-3 -82 21 -178 53 l-174 56 89 82 c49 46 92 83 97 83 4 0 28 -28 53 -62z
m1159 -243 c-3 -71 -11 -159 -19 -195 -13 -61 -14 -47 -14 220 l0 285 20 -90
c15 -73 18 -115 13 -220z m1189 210 l78 -70 -173 -56 c-96 -30 -175 -52 -177
-47 -6 15 70 156 115 213 51 65 35 69 157 -40z m-2900 31 c159 -77 289 -232
330 -392 68 -262 -90 -540 -351 -617 -28 -9 -54 -13 -57 -10 -3 4 -6 18 -6 33
0 20 9 31 40 49 61 34 159 129 202 196 59 91 81 175 76 294 -3 85 -8 106 -36
164 -18 36 -53 87 -77 112 -44 44 -152 105 -187 105 -15 0 -18 9 -18 50 0 28
3 50 6 50 4 0 39 -15 78 -34z m3374 -21 c-3 -36 -6 -39 -55 -56 -102 -34 -171
-96 -223 -200 -109 -216 -18 -488 218 -647 46 -32 62 -49 62 -66 0 -32 -6 -35
-52 -24 -110 24 -229 112 -300 222 -143 222 -86 524 134 707 68 57 197 124
211 110 4 -4 7 -25 5 -46z m-1028 -7 c-1 -38 -6 -47 -45 -81 l-45 -38 0 58 0
59 43 21 c23 12 43 22 45 22 1 1 2 -18 2 -41z m-1393 -5 c-3 -10 -5 -4 -5 12
0 17 2 24 5 18 2 -7 2 -21 0 -30z m81 -64 l-3 -54 -5 62 c-3 34 -1 58 3 54 5
-4 7 -32 5 -62z m549 -31 c-3 -7 -5 -2 -5 12 0 14 2 19 5 13 2 -7 2 -19 0 -25z
m-1590 -13 c64 -32 127 -99 161 -173 24 -50 27 -69 27 -162 0 -98 -2 -110 -33
-174 -18 -39 -49 -90 -69 -114 -35 -43 -140 -132 -155 -132 -5 0 -8 54 -8 120
l0 120 33 14 c103 43 103 179 0 222 l-33 14 0 145 c0 113 3 145 13 145 7 0 36
-11 64 -25z m1622 -182 c-1 -98 -4 -164 -8 -148 -7 32 -3 325 5 325 2 0 4 -80
3 -177z m-1186 116 c73 -23 136 -44 141 -46 7 -5 -163 -101 -187 -106 -4 -1
-18 24 -31 56 -14 32 -36 76 -50 98 -15 21 -21 39 -15 39 6 0 70 -19 142 -41z
m2902 -83 c0 -30 -31 -44 -51 -24 -24 24 -11 50 23 46 20 -2 28 -9 28 -22z
m-1748 -18 c-3 -7 -5 -2 -5 12 0 14 2 19 5 13 2 -7 2 -19 0 -25z m1167 -40
l144 -72 0 -95 c0 -53 5 -112 11 -131 17 -53 4 -57 -106 -31 -147 35 -163 47
-163 114 0 63 69 89 124 46 32 -25 70 -22 74 7 4 30 -43 72 -91 82 -63 12
-107 -1 -146 -45 l-34 -38 6 70 c5 66 25 165 33 165 2 0 69 -32 148 -72z
m-1599 -27 c16 -18 74 -72 128 -119 54 -46 119 -110 144 -141 45 -57 105 -164
129 -235 14 -37 13 -41 -17 -95 -40 -70 -81 -126 -238 -321 -69 -86 -143 -187
-165 -223 -21 -37 -40 -67 -42 -67 -2 0 -4 289 -3 643 0 607 1 641 17 617 9
-13 30 -40 47 -59z m1053 -883 l-3 -323 -50 80 c-27 44 -113 159 -190 255
-138 172 -235 313 -235 341 0 26 66 164 107 224 40 60 126 145 237 239 32 27
75 72 95 100 l36 50 3 -322 c1 -177 1 -467 0 -644z m1049 886 c8 -21 -19 -46
-40 -38 -17 6 -23 35 -10 47 12 13 44 7 50 -9z m-2680 -50 c-3 -3 -12 -4 -19
-1 -8 3 -5 6 6 6 11 1 17 -2 13 -5z m50 0 c-3 -3 -12 -4 -19 -1 -8 3 -5 6 6 6
11 1 17 -2 13 -5z m103 -55 c0 -16 -4 -28 -9 -25 -8 5 -3 56 5 56 2 0 4 -14 4
-31z m2377 -6 c-3 -10 -5 -4 -5 12 0 17 2 24 5 18 2 -7 2 -21 0 -30z m-3175
-30 c-5 -83 -9 -90 -11 -20 0 37 2 67 7 67 4 0 6 -21 4 -47z m3304 33 c15 -12
17 -18 8 -33 -16 -26 -50 -28 -63 -4 -8 15 -7 23 5 35 19 20 25 20 50 2z m144
-51 c0 -50 -3 -65 -14 -65 -16 0 -56 46 -56 65 0 19 40 65 56 65 11 0 14 -15
14 -65z m-2973 23 c-3 -7 -5 -2 -5 12 0 14 2 19 5 13 2 -7 2 -19 0 -25z m0
-55 c-3 -10 -5 -4 -5 12 0 17 2 24 5 18 2 -7 2 -21 0 -30z m-437 -7 c0 -2 -8
-10 -17 -17 -16 -13 -17 -12 -4 4 13 16 21 21 21 13z m3305 -66 c7 -23 -10
-50 -31 -50 -20 0 -34 31 -23 52 13 24 46 23 54 -2z m-2591 -111 c-32 -103
-93 -234 -103 -223 -21 24 -143 206 -140 208 2 2 44 13 93 25 95 24 134 40
156 66 23 27 21 10 -6 -76z m2019 27 c29 -9 76 -21 105 -28 l53 -13 -75 -109
-75 -108 -31 61 c-30 60 -90 227 -90 251 0 6 14 0 31 -14 17 -14 54 -32 82
-40z m657 -11 c0 -20 -5 -25 -25 -25 -20 0 -25 5 -25 25 0 20 5 25 25 25 20 0
25 -5 25 -25z m-2935 -139 c36 -52 65 -96 65 -99 0 -9 -100 23 -140 43 -77 40
-77 40 -39 102 19 31 37 54 41 51 4 -2 37 -46 73 -97z m2866 37 c13 -16 12
-17 -3 -4 -10 7 -18 15 -18 17 0 8 8 3 21 -13z m-2251 -160 l0 -58 -87 -50
c-48 -27 -92 -50 -97 -50 -5 0 -11 14 -13 30 -2 26 3 34 45 62 26 18 70 52 97
77 28 25 51 45 53 46 1 0 2 -26 2 -57z m-780 -93 c24 -69 48 -131 53 -137 33
-44 -188 54 -277 123 l-49 38 34 11 c46 16 128 60 159 84 14 11 28 17 31 13 3
-4 25 -63 49 -132z m2850 125 c17 -20 127 -82 163 -90 15 -4 27 -11 27 -15 0
-23 -222 -149 -291 -165 l-26 -6 51 145 c28 80 54 146 57 146 4 0 12 -7 19
-15z m-799 -22 c13 -16 12 -17 -3 -4 -10 7 -18 15 -18 17 0 8 8 3 21 -13z
m-1954 -17 c27 -14 78 -30 111 -37 34 -7 62 -16 62 -19 0 -8 -119 -126 -146
-145 -21 -14 -22 -13 -33 28 -6 23 -22 77 -35 120 -14 42 -21 77 -17 77 4 0
30 -11 58 -24z m2643 15 c0 -5 -13 -52 -30 -106 -16 -54 -30 -104 -30 -112 0
-11 -4 -12 -22 -2 -28 15 -148 134 -148 146 0 5 26 14 58 21 31 7 80 23 107
36 56 27 65 30 65 17z m-1400 -141 c0 -35 -11 -92 -30 -150 -58 -183 -59 -273
-4 -384 l27 -55 -83 -88 c-180 -190 -224 -319 -161 -466 23 -53 91 -131 153
-173 l41 -29 -64 -7 -64 -6 -73 71 c-252 246 -314 505 -187 774 45 96 92 164
236 340 67 81 138 171 158 199 41 59 51 54 51 -26z m161 12 c26 -37 86 -114
135 -172 251 -301 324 -454 310 -652 -13 -176 -96 -329 -266 -491 l-60 -58
-64 7 -65 7 58 42 c67 49 113 105 142 171 18 39 21 61 17 128 -6 109 -41 175
-168 311 l-97 104 31 63 c29 57 31 70 31 163 0 85 -5 115 -33 200 -24 75 -32
117 -32 172 0 40 3 73 8 73 4 -1 28 -31 53 -68z m-1762 -115 c34 -48 61 -90
61 -92 0 -13 -65 -3 -100 15 l-40 20 0 82 c0 49 4 78 9 73 5 -6 36 -50 70 -98z
m791 25 c0 -44 3 -113 6 -155 4 -44 3 -77 -2 -77 -5 0 -22 11 -39 24 -29 23
-30 26 -35 137 l-5 112 30 19 c17 10 33 18 38 18 4 0 7 -35 7 -78z m250 18 l0
-61 -92 3 c-95 3 -123 17 -71 36 15 5 55 26 88 45 33 19 63 36 68 36 4 1 7
-26 7 -59z m1403 -46 c1 -5 -40 -10 -90 -12 l-93 -3 0 61 0 61 91 -49 c50 -27
91 -53 92 -58z m74 29 c-2 -16 -4 -3 -4 27 0 30 2 43 4 28 2 -16 2 -40 0 -55z
m-2349 -34 l96 -48 -39 -17 c-79 -33 -92 -28 -156 61 -31 44 -58 84 -58 88 -1
5 13 -2 30 -14 17 -12 75 -44 127 -70z m3115 78 c-50 -80 -117 -167 -128 -167
-8 0 -40 10 -71 21 l-56 21 90 43 c49 24 107 55 128 69 44 30 48 31 37 13z
m-706 -49 c-3 -7 -5 -2 -5 12 0 14 2 19 5 13 2 -7 2 -19 0 -25z m-1917 -25 c1
-27 3 -65 6 -86 6 -37 6 -37 -20 -26 -24 11 -26 17 -26 80 0 63 5 75 33 78 4
1 7 -20 7 -46z m2011 37 c5 0 9 -31 9 -68 0 -64 -2 -70 -25 -80 l-25 -12 2 85
c2 66 6 84 16 80 8 -3 18 -5 23 -5z m-2111 -71 c0 -35 -3 -40 -17 -34 -10 3
-44 13 -76 22 -31 9 -54 19 -51 22 6 6 96 27 127 30 14 1 17 -7 17 -40z m2262
28 c31 -7 59 -15 62 -18 4 -3 -28 -15 -69 -26 l-75 -20 0 39 c0 43 -1 42 82
25z m-1784 -72 c2 -1 2 -38 0 -80 l-3 -78 -87 74 c-49 40 -88 78 -88 84 0 9
168 9 178 0z m1402 3 c0 -11 -54 -59 -157 -141 l-23 -18 0 80 0 80 78 4 c42 1
83 4 90 5 6 1 12 -4 12 -10z m-2028 -34 c50 -32 66 -59 83 -140 30 -143 14
-324 -40 -465 -10 -25 -15 -53 -12 -62 3 -9 28 -27 55 -41 50 -25 101 -76 125
-124 22 -42 29 -81 28 -148 -1 -86 12 -95 88 -60 32 14 74 26 92 26 35 0 99
-26 134 -55 20 -16 20 -16 -6 -63 -25 -46 -28 -47 -85 -55 -66 -9 -195 -1
-264 17 l-44 11 -1 110 c0 95 -3 117 -24 158 -27 56 -69 91 -142 117 l-54 19
3 43 c1 24 12 90 24 148 17 78 23 140 23 240 0 126 -2 139 -27 193 -15 32 -41
76 -58 97 l-30 38 23 16 c27 19 59 13 109 -20z m2579 20 l30 -15 -32 -37 c-45
-51 -78 -132 -88 -216 -11 -86 -7 -129 25 -316 13 -80 26 -155 28 -167 3 -19
-5 -25 -45 -38 -75 -25 -127 -69 -156 -131 -21 -46 -25 -69 -24 -144 0 -49 2
-95 3 -101 5 -22 -93 -41 -226 -42 l-128 -1 -24 29 c-38 47 -40 76 -8 100 68
50 138 57 210 20 44 -22 82 -25 85 -7 1 4 2 41 3 82 2 54 9 88 25 122 26 55
94 121 145 142 20 8 39 22 42 29 3 8 -8 53 -25 100 -53 150 -60 289 -25 448
16 70 46 109 109 142 38 20 40 20 76 1z m-1318 -63 c10 -38 17 -89 17 -113 0
-47 -26 -138 -40 -138 -17 0 -40 83 -40 142 0 61 26 178 40 178 4 0 14 -31 23
-69z m834 -18 c-2 -16 -4 -3 -4 27 0 30 2 43 4 28 2 -16 2 -40 0 -55z m-2553
-43 c0 -47 -2 -107 -3 -135 -1 -46 -3 -49 -16 -31 -11 15 -15 50 -15 139 0
107 2 118 18 115 15 -3 17 -15 16 -88z m2806 85 c0 -3 -10 -40 -22 -82 -19
-65 -23 -101 -22 -223 1 -125 4 -156 26 -227 l25 -82 -47 -30 c-26 -17 -59
-47 -74 -66 -35 -46 -76 -134 -76 -165 0 -40 -11 -45 -95 -45 -76 0 -103 -8
-187 -53 -8 -4 -38 129 -40 178 0 19 6 62 16 95 9 33 18 101 20 151 4 80 9
100 40 163 77 157 200 279 365 362 55 28 71 34 71 24z m615 -118 c-2 -197 -29
-196 -34 2 -1 52 -4 98 -7 102 -4 7 12 17 31 18 7 1 10 -42 10 -122z m-3368
36 c-4 -38 -7 -103 -7 -145 0 -61 -3 -78 -14 -78 -12 0 -14 19 -10 113 6 138
12 177 26 177 7 0 9 -21 5 -67z m109 -210 c-3 -7 -12 -13 -21 -13 -13 0 -15
21 -15 139 0 125 2 140 18 143 15 3 17 -9 20 -126 1 -72 0 -136 -2 -143z m61
157 c-1 -78 -6 -123 -15 -132 -9 -9 -12 15 -12 120 0 110 2 132 15 132 12 0
14 -19 12 -120z m42 35 c0 -27 -4 -57 -9 -65 -7 -10 -10 12 -9 70 0 91 17 87
18 -5z m2931 -47 c0 -124 -1 -130 -17 -115 -16 13 -18 31 -15 131 3 93 6 116
18 116 11 0 14 -24 14 -132z m163 35 c10 -138 9 -193 -3 -193 -6 0 -10 28 -10
63 0 34 -3 99 -7 145 -4 52 -2 82 4 82 6 0 13 -44 16 -97z m-3253 -52 c0 -133
-7 -168 -30 -145 -4 5 -6 71 -3 147 5 106 9 137 19 137 11 0 14 -29 14 -139z
m3160 -1 c0 -133 -1 -140 -20 -140 -19 0 -20 7 -20 140 0 133 1 140 20 140 19
0 20 -7 20 -140z m44 103 c3 -21 6 -86 6 -145 0 -89 -3 -108 -15 -108 -13 0
-15 23 -15 145 0 139 10 187 24 108z m-2304 -67 l80 -68 0 -89 c0 -49 -3 -89
-7 -89 -5 0 -22 26 -40 58 -17 31 -54 85 -82 120 -43 52 -51 69 -51 103 0 22
4 39 10 37 5 -1 46 -34 90 -72z m1430 -66 c-26 -30 -64 -83 -84 -117 -21 -35
-39 -63 -42 -63 -2 0 -4 42 -3 93 l1 92 81 69 82 69 6 -44 c6 -42 3 -47 -41
-99z m-2060 34 c28 -93 26 -191 -10 -386 -16 -89 -30 -166 -30 -170 0 -10 -70
12 -124 39 -96 49 -189 172 -211 280 l-6 32 31 -10 c51 -18 133 -6 186 27 64
40 101 95 121 182 10 39 18 72 20 72 1 0 11 -30 23 -66z m2708 -91 c25 -47 79
-97 129 -118 40 -17 119 -20 157 -5 25 9 26 8 20 -18 -36 -149 -135 -262 -274
-311 -61 -22 -70 -20 -70 13 0 13 -11 84 -25 157 -36 192 -34 324 8 416 10 23
12 21 23 -35 7 -32 21 -77 32 -99z m-2451 45 c-3 -7 -5 -2 -5 12 0 14 2 19 5
13 2 -7 2 -19 0 -25z m-1327 6 c0 -4 -14 -22 -31 -41 -16 -19 -42 -59 -57 -89
-21 -43 -31 -54 -50 -54 l-24 0 23 38 c67 109 90 141 106 145 28 7 33 7 33 1z
m448 -19 c40 -9 72 -18 70 -20 -2 -2 -30 -12 -62 -23 l-59 -20 -40 26 c-32 22
-52 27 -100 27 -50 0 -62 -4 -78 -23 -14 -19 -16 -28 -8 -43 9 -17 17 -19 67
-14 79 9 100 -6 82 -60 -8 -25 -11 -71 -8 -132 4 -69 2 -90 -6 -80 -6 7 -27
25 -46 39 -131 95 -173 215 -104 298 14 16 40 34 57 38 47 12 151 7 235 -13z
m4149 -1 c33 -20 56 -71 55 -121 -2 -74 -32 -117 -161 -225 -18 -16 -35 -28
-36 -28 -2 0 1 15 6 32 12 45 11 130 -3 185 -10 41 -9 47 8 60 13 9 39 13 79
11 59 -3 60 -2 63 24 7 60 -109 76 -186 25 l-38 -25 -68 22 -69 23 59 12 c152
32 246 33 291 5z m176 -23 c42 -44 87 -117 87 -140 0 -5 -6 -11 -14 -14 -9 -4
-24 15 -45 58 -19 39 -50 80 -78 104 -43 38 -44 41 -21 41 17 0 40 -16 71 -49z
m46 39 c9 0 111 -157 111 -171 0 -5 -9 -9 -20 -9 -13 0 -25 13 -38 43 -10 23
-35 63 -55 90 -41 52 -45 62 -21 53 9 -3 19 -6 23 -6z m-4690 -32 c-33 -46
-38 -131 -10 -188 11 -24 19 -45 17 -47 -2 -3 -21 4 -43 15 -21 11 -55 25 -75
31 -21 7 -38 17 -38 22 0 42 77 145 135 181 40 24 40 23 14 -14z m1405 10 c21
-30 20 -50 -5 -82 -38 -48 -111 -23 -111 39 0 60 83 90 116 43z m3179 -37 c30
-27 70 -91 81 -127 6 -19 -2 -24 -71 -50 -43 -16 -80 -30 -84 -32 -4 -2 4 18
17 44 31 61 31 117 0 178 l-24 47 27 -17 c14 -9 39 -28 54 -43z m-4809 37
c-55 -92 -97 -148 -110 -148 -13 0 -15 6 -9 28 11 47 37 92 63 112 28 23 68
28 56 8z m5010 3 c26 -10 69 -77 80 -123 5 -23 3 -28 -12 -28 -11 0 -34 26
-62 72 -62 98 -62 100 -6 79z m-5130 -53 c-10 -18 -20 -46 -24 -63 -4 -21 -12
-31 -29 -33 -20 -3 -22 -1 -15 20 19 61 44 107 61 110 26 6 26 4 7 -34z m5306
2 c17 -9 40 -58 40 -86 0 -27 -31 -13 -44 19 -32 76 -31 86 4 67z m-5380 -7
c0 -24 -34 -90 -47 -90 -11 0 -13 8 -8 36 4 20 11 42 17 49 11 13 38 17 38 5z
m865 -10 c-51 -118 -80 -320 -66 -448 5 -44 8 -81 7 -83 -2 -1 -16 17 -31 40
-15 23 -48 64 -74 91 -36 38 -49 63 -63 115 -10 37 -18 85 -18 107 0 47 17
115 29 115 21 0 45 -79 51 -165 4 -72 8 -90 21 -93 43 -8 40 139 -6 285 -6 19
-2 25 26 38 19 8 56 14 83 15 42 0 47 -2 41 -17z m4614 -39 c15 -35 14 -44 -8
-44 -12 0 -21 9 -25 24 -3 13 -9 31 -12 39 -10 27 32 8 45 -19z m-5565 -1 c-9
-38 -13 -43 -31 -43 -29 0 0 69 30 70 4 0 4 -12 1 -27z m1016 -28 c0 -50 34
-148 70 -205 35 -55 116 -132 164 -158 17 -8 58 -23 91 -32 l60 -17 6 -69 c14
-143 79 -251 194 -319 16 -10 15 -20 -13 -158 -16 -81 -32 -150 -35 -154 -4
-3 -27 2 -52 12 -36 13 -45 21 -40 34 15 38 45 157 45 177 0 16 -11 26 -39 38
-55 21 -106 69 -131 121 -20 42 -24 77 -17 179 2 23 -4 33 -23 42 -14 6 -54
25 -90 42 -87 40 -160 99 -212 172 -23 33 -46 60 -50 60 -13 0 -9 71 7 135 34
133 65 181 65 100z m3540 -22 c12 -38 26 -97 32 -133 11 -64 11 -65 -18 -99
-134 -156 -184 -195 -298 -237 l-61 -22 3 -79 c6 -124 -36 -201 -133 -248 -65
-32 -67 -41 -32 -163 l24 -81 -39 -16 c-21 -8 -44 -15 -51 -15 -9 0 -23 50
-42 151 l-29 152 24 16 c105 67 164 166 184 304 l11 81 47 12 c110 28 197 91
260 188 42 65 78 168 78 222 0 54 17 40 40 -33z m-4634 19 c-4 -11 -19 -22
-35 -25 -16 -3 -42 -9 -57 -12 -20 -5 -10 4 31 28 33 19 62 33 63 32 2 -2 1
-12 -2 -23z m5749 -7 c33 -19 55 -35 48 -35 -27 0 -113 22 -113 30 0 5 -3 15
-6 24 -9 23 4 20 71 -19z m-245 2 c11 -5 9 -6 -4 -4 -11 1 -21 9 -23 17 -3 10
-2 11 4 4 4 -6 15 -14 23 -17z m-3723 -39 c-3 -8 -6 -5 -6 6 -1 11 2 17 5 13
3 -3 4 -12 1 -19z m1158 -110 c146 -158 181 -265 120 -376 -15 -27 -42 -64
-60 -82 l-32 -31 5 73 c2 40 -1 91 -7 113 -15 57 -71 147 -103 164 -26 15 -29
14 -56 -12 -41 -39 -78 -112 -92 -180 -10 -52 -9 -83 7 -142 8 -31 -63 40 -95
95 -38 63 -37 144 1 222 26 52 197 248 217 248 5 0 47 -42 95 -92z m-2762 65
c-13 -2 -35 -2 -50 0 -16 2 -5 4 22 4 28 0 40 -2 28 -4z m4594 -25 c-3 -7 -5
-2 -5 12 0 14 2 19 5 13 2 -7 2 -19 0 -25z m861 22 c45 -5 120 -19 165 -31
l82 -23 -95 -17 c-112 -20 -162 -37 -249 -85 -188 -104 -268 -190 -791 -862
-129 -165 -236 -299 -238 -297 -2 2 5 32 17 67 11 35 43 158 71 273 61 255 99
374 152 481 112 226 305 391 544 463 120 37 217 46 342 31z m-5601 -6 c-3 -3
-12 -4 -19 -1 -8 3 -5 6 6 6 11 1 17 -2 13 -5z m250 0 c-3 -3 -12 -4 -19 -1
-8 3 -5 6 6 6 11 1 17 -2 13 -5z m1737 -9 c58 -28 87 -117 56 -175 -18 -33
-70 -60 -118 -60 -84 0 -142 93 -108 173 27 66 103 94 170 62z m2703 -37 c-3
-8 -6 -5 -6 6 -1 11 2 17 5 13 3 -3 4 -12 1 -19z m-2520 -50 c-2 -13 -4 -5 -4
17 -1 22 1 32 4 23 2 -10 2 -28 0 -40z m-2300 36 c-3 -3 -12 -4 -19 -1 -8 3
-5 6 6 6 11 1 17 -2 13 -5z m421 -16 c21 -21 15 -75 -10 -92 -28 -20 -47 -20
-72 -1 -22 17 -26 66 -6 89 15 19 71 21 88 4z m4409 -80 c-2 -13 -4 -5 -4 17
-1 22 1 32 4 23 2 -10 2 -28 0 -40z m-4852 -25 c127 -64 252 -170 353 -300 49
-63 95 -178 116 -289 16 -86 50 -423 43 -430 -2 -2 -9 22 -16 53 -44 202 -170
499 -283 668 -64 95 -194 235 -271 290 -94 67 -69 71 58 8z m694 21 c25 -21
31 -33 31 -66 0 -84 -94 -128 -157 -74 -23 20 -28 32 -28 71 0 39 5 51 28 71
38 32 86 32 126 -2z m5330 3 c-14 -12 -55 -46 -90 -75 -211 -172 -389 -488
-489 -866 -29 -109 -47 -152 -36 -86 3 19 11 91 16 160 20 235 58 396 117 498
40 67 193 222 277 281 113 77 274 147 205 88z m-5920 -29 c68 -41 162 -123
228 -198 64 -74 603 -784 603 -795 0 -3 -10 -5 -22 -5 -13 0 -42 -9 -66 -20
l-42 -19 -75 150 c-187 373 -342 621 -467 748 -35 36 -96 86 -137 113 -74 48
-90 67 -22 26z m151 -47 c87 -52 208 -158 293 -256 80 -92 678 -847 674 -851
-1 -1 -34 3 -73 9 l-72 11 -346 461 c-337 449 -409 537 -510 623 -27 23 -45
42 -40 42 4 0 38 -18 74 -39z m5432 -20 c-93 -80 -110 -101 -497 -614 l-340
-452 -45 -7 c-25 -4 -61 -10 -80 -13 l-35 -7 26 29 c14 15 144 179 289 363
427 542 497 617 674 724 33 20 64 36 68 36 5 0 -22 -26 -60 -59z m128 54 c0
-2 -10 -9 -22 -15 -22 -11 -22 -10 -4 4 21 17 26 19 26 11z m-963 -67 c-2 -13
-4 -5 -4 17 -1 22 1 32 4 23 2 -10 2 -28 0 -40z m913 39 c0 -2 -10 -12 -22
-23 l-23 -19 19 23 c18 21 26 27 26 19z m-840 -21 c0 -2 -8 -10 -17 -17 -16
-13 -17 -12 -4 4 13 16 21 21 21 13z m-3594 -168 l69 -37 -37 -15 c-47 -20
-91 -19 -148 2 -51 20 -66 50 -77 153 l-6 57 65 -62 c35 -34 96 -78 134 -98z
m3449 55 c-8 -43 -19 -80 -23 -84 -16 -14 -95 -39 -123 -39 -16 0 -46 7 -67
15 l-37 16 54 29 c72 40 157 106 184 144 30 42 33 19 12 -81z m-2476 63 c27
-57 -32 -116 -83 -82 -34 22 -43 59 -21 92 13 21 23 25 53 22 29 -2 40 -9 51
-32z m-1789 -31 c30 -30 52 -55 49 -55 -2 0 -29 25 -59 55 -30 30 -52 55 -49
55 2 0 29 -25 59 -55z m371 22 c41 -27 59 -60 59 -107 0 -67 -61 -130 -125
-130 -37 0 -91 27 -109 55 -77 118 60 260 175 182z m2111 -40 c30 -60 30 -139
-2 -195 -13 -23 -28 -41 -34 -39 -6 2 -21 23 -34 48 -20 36 -23 54 -19 101 5
57 43 142 59 132 4 -3 18 -24 30 -47z m2668 30 c0 -2 -12 -14 -27 -28 l-28
-24 24 28 c23 25 31 32 31 24z m-3931 -41 c39 -21 78 -69 91 -114 13 -48 13
-169 0 -177 -6 -4 -37 20 -69 53 -49 49 -63 70 -80 126 -12 38 -21 86 -21 107
0 37 1 38 25 29 14 -5 38 -16 54 -24z m628 2 c-3 -7 -5 -2 -5 12 0 14 2 19 5
13 2 -7 2 -19 0 -25z m1907 -30 c-14 -111 -70 -208 -143 -251 l-31 -18 -1 43
c-3 119 9 168 55 217 32 34 78 60 109 61 16 0 17 -6 11 -52z m-1844 -39 c0 -5
-4 -9 -10 -9 -5 0 -10 7 -10 16 0 8 5 12 10 9 6 -3 10 -10 10 -16z m1100 6 c0
-8 -7 -15 -15 -15 -9 0 -12 6 -9 15 4 8 10 15 15 15 5 0 9 -7 9 -15z m-1473
-27 c-3 -7 -5 -2 -5 12 0 14 2 19 5 13 2 -7 2 -19 0 -25z m111 -5 c-10 -2 -26
-2 -35 0 -10 3 -2 5 17 5 19 0 27 -2 18 -5z m311 -42 l21 -30 -55 -6 c-31 -4
-58 -5 -61 -3 -2 3 1 19 7 36 15 44 59 45 88 3z m1066 -2 c4 -17 4 -33 1 -36
-3 -3 -29 -2 -57 3 l-51 9 22 28 c14 18 31 27 50 27 24 0 30 -5 35 -31z m1000
-61 c24 -51 49 -112 56 -136 19 -66 1 -78 -131 -87 l-105 -8 43 47 c60 65 84
123 85 207 1 38 3 69 5 69 2 0 23 -42 47 -92z m997 85 c-6 -2 -10 -9 -7 -13 3
-5 1 -11 -4 -14 -7 -5 -8 11 -2 32 1 1 7 2 14 1 9 0 9 -2 -1 -6z m-4096 -71
c1 -57 6 -79 34 -131 18 -34 44 -71 57 -81 13 -10 23 -21 23 -25 0 -4 -44 -4
-97 0 -103 7 -133 20 -133 57 0 35 94 248 110 248 3 0 5 -31 6 -68z m-140 43
l81 0 -27 -60 c-15 -33 -32 -77 -39 -97 -7 -21 -15 -38 -18 -38 -11 0 -34 35
-73 112 -45 86 -49 105 -22 92 9 -5 53 -9 98 -9z m3444 9 c0 -14 -70 -151 -92
-181 l-24 -32 -37 92 c-21 51 -40 97 -43 103 -3 8 17 10 69 6 45 -3 82 0 93 6
22 13 34 15 34 6z m754 -32 c3 -5 -1 -9 -9 -9 -8 0 -12 4 -9 9 3 4 7 8 9 8 2
0 6 -4 9 -8z m-3006 -78 c-35 -7 -83 -19 -108 -28 -24 -8 -46 -14 -47 -12 -2
2 3 19 12 39 13 31 20 36 57 41 93 12 103 12 126 -8 l23 -21 -63 -11z m1048
40 c14 -2 27 -18 37 -41 8 -21 14 -39 13 -40 -1 -1 -33 7 -71 18 -39 10 -87
21 -107 24 -38 6 -38 6 -22 30 15 23 21 24 73 19 31 -3 66 -7 77 -10z m-2539
-30 c27 -8 57 -67 47 -97 -11 -39 -35 -57 -73 -57 -49 1 -72 21 -78 68 -5 34
-1 45 20 66 26 26 44 30 84 20z m1618 -58 l30 -24 -40 -7 c-71 -12 -261 -64
-309 -84 -25 -11 -46 -17 -46 -13 0 19 54 84 83 99 57 30 141 52 197 52 44 1
61 -4 85 -23z m812 18 c-3 -3 -12 -4 -19 -1 -8 3 -5 6 6 6 11 1 17 -2 13 -5z
m-117 -18 c0 -2 -8 -10 -17 -17 -16 -13 -17 -12 -4 4 13 16 21 21 21 13z
m-2753 -161 c34 -60 97 -183 142 -272 l81 -163 -40 -20 c-50 -25 -76 -25 -97
0 -36 41 -97 13 -75 -35 29 -63 134 -79 205 -31 l36 25 26 -45 c15 -25 25 -48
23 -53 -10 -23 -195 -185 -230 -201 -24 -10 -44 -17 -46 -16 -5 5 -41 230 -37
234 1 2 8 -14 15 -35 20 -62 72 -153 87 -153 8 0 13 3 11 8 -2 4 -18 36 -37
71 -50 96 -77 221 -96 436 -14 167 -31 293 -51 375 -6 24 -6 24 8 5 8 -11 42
-69 75 -130z m4888 128 c-18 -47 -36 -169 -50 -335 -24 -277 -53 -408 -114
-508 -24 -41 -26 -50 -7 -50 14 0 71 106 82 153 3 15 9 26 11 23 3 -2 -3 -52
-13 -110 -12 -76 -21 -106 -31 -106 -31 0 -93 43 -178 123 l-90 84 24 51 24
51 45 -26 c77 -46 179 -30 201 30 10 27 4 45 -19 57 -14 8 -26 4 -48 -15 -17
-14 -37 -25 -46 -25 -17 0 -96 37 -96 44 0 6 233 455 269 519 32 55 50 75 36
40z m-2098 1 c-3 -3 -12 -4 -19 -1 -8 3 -5 6 6 6 11 1 17 -2 13 -5z m-12 -54
c313 -67 584 -207 805 -417 99 -94 198 -212 254 -301 15 -24 26 -45 24 -47 -2
-2 -41 26 -88 62 -303 229 -665 387 -1048 455 -170 30 -465 32 -622 5 -413
-73 -797 -240 -1098 -479 -35 -28 -65 -49 -67 -47 -2 3 20 40 50 83 240 355
626 608 1044 686 154 28 155 28 411 25 193 -3 253 -7 335 -25z m-2062 -58
c-20 -15 -27 -6 -37 48 l-7 35 30 -35 c28 -32 29 -36 14 -48z m3404 33 c-11
-47 -18 -53 -35 -32 -8 9 -4 21 14 45 14 18 27 32 28 32 2 0 -1 -20 -7 -45z
m-2682 4 c33 -5 89 -9 123 -9 37 0 62 -4 60 -10 -14 -40 -354 -277 -372 -259
-3 2 4 47 15 99 10 52 24 119 30 148 l11 54 36 -7 c21 -4 64 -11 97 -16z
m2089 -111 c29 -150 31 -168 14 -168 -19 0 -258 164 -318 217 l-54 50 114 6
c63 4 129 11 145 16 71 22 70 24 99 -121z m-2952 55 c27 -24 24 -87 -4 -107
-50 -35 -108 -7 -108 51 0 20 7 45 17 55 20 22 70 23 95 1z m186 -65 c-22 -10
-42 -17 -43 -16 -1 2 -5 15 -9 30 -5 21 -1 30 16 42 21 15 24 14 50 -11 l28
-26 -42 -19z m271 63 c12 -7 9 -18 -14 -58 -15 -26 -30 -50 -31 -52 -6 -6
-107 65 -134 94 l-23 25 94 0 c52 0 100 -4 108 -9z m2879 2 c-16 -2 -40 -2
-55 0 -16 2 -3 4 27 4 30 0 43 -2 28 -4z m171 -12 c18 -18 19 -71 1 -71 -7 0
-71 29 -79 37 -6 4 40 53 51 53 4 0 16 -8 27 -19z m-3247 -101 c-16 -10 -43
-35 -60 -55 l-31 -38 -6 29 c-4 16 -8 34 -10 41 -5 15 22 38 65 56 31 13 37
13 53 -1 16 -14 15 -16 -11 -32z m211 7 c-6 -36 -16 -46 -28 -27 -6 10 23 75
30 68 3 -2 2 -21 -2 -41z m2736 -31 c-13 -14 -19 -4 -25 40 l-5 39 20 -35 c12
-21 16 -39 10 -44z m270 34 c21 -14 23 -21 16 -58 l-7 -43 -39 45 c-22 25 -49
48 -60 51 -19 6 -19 8 -4 25 18 20 43 14 94 -20z m-3119 -45 c0 -2 -22 -19
-50 -39 -29 -21 -61 -56 -79 -87 l-29 -52 -11 38 c-12 45 0 74 51 121 51 48
68 54 95 37 13 -8 23 -17 23 -18z m3061 -22 c41 -44 51 -70 44 -114 l-7 -39
-38 58 c-21 31 -57 68 -79 82 -22 14 -41 28 -41 32 0 4 10 14 21 22 19 13 26
13 48 1 14 -7 38 -26 52 -42z m-2994 -14 c7 -7 -3 -24 -38 -56 -59 -55 -85
-96 -115 -177 l-22 -61 -12 30 c-26 65 -23 97 12 155 53 87 141 143 175 109z
m2889 -14 c46 -27 93 -88 113 -144 9 -28 8 -44 -5 -83 -8 -26 -17 -48 -19 -48
-2 0 -11 24 -20 53 -23 69 -66 136 -122 187 -34 32 -42 45 -32 51 22 14 40 11
85 -16z m-2769 -40 c1 0 -37 -41 -85 -91 -61 -62 -99 -113 -127 -166 -22 -42
-43 -74 -47 -72 -13 8 -9 77 7 131 20 66 80 156 134 198 l43 34 36 -17 c20 -9
38 -17 39 -17z m1073 31 c0 -2 -26 -17 -57 -32 -68 -34 -168 -130 -208 -198
-134 -231 -103 -500 79 -682 39 -39 89 -81 111 -92 36 -19 38 -21 14 -22 -94
-1 -426 82 -609 153 -179 69 -454 215 -558 295 l-24 19 49 42 c215 191 585
379 907 462 120 31 296 64 296 55z m386 -36 c229 -80 375 -329 334 -570 -18
-106 -74 -212 -154 -288 -183 -176 -453 -196 -659 -49 -251 179 -289 538 -82
766 146 160 356 213 561 141z m203 9 c349 -68 696 -228 989 -456 45 -35 82
-70 82 -76 0 -16 -173 -124 -315 -198 -248 -128 -592 -238 -830 -265 l-60 -7
62 42 c350 237 320 772 -54 960 -73 37 -65 37 126 0z m1057 -42 c44 -45 67
-80 83 -121 27 -73 37 -138 23 -161 -8 -15 -17 -4 -53 66 -32 62 -65 106 -126
168 -46 46 -82 85 -81 86 67 36 86 32 154 -38z m-2648 17 c21 -6 16 -13 -62
-94 -72 -74 -169 -196 -212 -267 -10 -14 -15 -15 -25 -6 -10 10 -5 28 29 95
46 93 112 178 186 238 52 43 50 43 84 34z m2533 -61 c109 -103 211 -269 188
-304 -11 -16 -3 -24 -100 109 -34 45 -96 120 -140 166 -80 85 -82 90 -32 95 7
0 45 -29 84 -66z m724 -43 c3 -5 1 -10 -4 -10 -6 0 -11 5 -11 10 0 6 2 10 4
10 3 0 8 -4 11 -10z m-4000 -100 c21 -28 36 -52 34 -53 -2 -1 -31 -12 -64 -23
-33 -12 -68 -24 -77 -28 -13 -6 -22 3 -42 43 l-26 50 29 20 c75 54 101 52 146
-9z m4008 36 c18 -8 41 -21 52 -29 19 -15 19 -15 -5 -66 -13 -28 -27 -51 -31
-51 -4 0 -31 11 -61 25 -29 14 -61 25 -70 25 -26 0 -22 11 17 64 39 50 49 53
98 32z m-3777 -199 c49 -25 112 -82 102 -92 -3 -3 -25 -1 -49 4 -138 29 -270
22 -404 -24 -38 -13 -79 -26 -90 -30 -33 -11 116 124 162 146 88 42 191 41
279 -4z m3541 27 c-3 -3 -12 -4 -19 -1 -8 3 -5 6 6 6 11 1 17 -2 13 -5z m120
0 c-3 -3 -12 -4 -19 -1 -8 3 -5 6 6 6 11 1 17 -2 13 -5z m138 -74 c10 -11 16
-20 13 -20 -3 0 -13 9 -23 20 -10 11 -16 20 -13 20 3 0 13 -9 23 -20z m-312
-27 c-7 -2 -21 -2 -30 0 -10 3 -4 5 12 5 17 0 24 -2 18 -5z m-133 -13 c0 -5
-5 -10 -11 -10 -5 0 -7 5 -4 10 3 6 8 10 11 10 2 0 4 -4 4 -10z m57 4 c-3 -3
-12 -4 -19 -1 -8 3 -5 6 6 6 11 1 17 -2 13 -5z m-3354 -57 c32 -7 59 -17 59
-22 1 -6 -21 -21 -48 -35 -44 -22 -63 -25 -184 -28 -74 -2 -182 1 -240 6
l-105 8 40 18 c64 28 151 55 207 65 61 11 186 5 271 -12z m3672 -5 c39 -10 95
-30 125 -44 l55 -25 -149 -8 c-82 -4 -192 -5 -245 -3 -83 4 -105 9 -149 33
-29 16 -49 32 -45 36 15 15 199 38 268 34 39 -3 102 -13 140 -23z m-3430 -161
c48 -98 49 -101 30 -116 -11 -8 -23 -15 -27 -15 -4 0 -31 45 -58 101 -49 97
-51 102 -35 126 22 33 30 24 90 -96z m2939 94 c16 -24 15 -28 -34 -125 -28
-55 -53 -100 -56 -100 -16 0 -44 23 -44 36 0 28 100 214 115 214 2 0 10 -11
19 -25z m-3164 -51 c0 -8 -19 -13 -24 -6 -3 5 1 9 9 9 8 0 15 -2 15 -3z m151
-95 c27 -56 49 -102 47 -103 -2 -1 -10 -7 -20 -14 -14 -12 -21 -2 -62 83 -38
82 -44 99 -33 116 6 10 13 19 14 19 2 0 26 -45 54 -101z m125 75 c31 -24 81
-91 73 -98 -2 -2 -14 -7 -26 -10 -20 -6 -26 1 -58 63 -19 39 -33 71 -29 71 3
0 21 -12 40 -26z m2759 -45 c-32 -62 -38 -69 -58 -63 -32 10 -33 12 -13 49 16
30 78 83 99 84 4 1 -9 -31 -28 -70z m158 -37 c-55 -120 -56 -122 -63 -122 -4
0 -13 7 -20 16 -11 13 -6 31 36 113 45 90 50 97 66 84 15 -14 14 -20 -19 -91z
m435 94 c138 1 252 0 252 -2 0 -8 -133 -76 -186 -95 -89 -31 -209 -24 -288 16
-33 17 -71 45 -85 63 l-25 34 40 -9 c21 -4 153 -7 292 -7z m-4109 0 c-8 -8
-88 -10 -95 -3 -4 4 17 7 46 7 29 0 51 -2 49 -4z m249 -13 c-15 -2 -42 -2 -60
0 -18 2 -6 4 27 4 33 0 48 -2 33 -4z m110 0 c-10 -2 -28 -2 -40 0 -13 2 -5 4
17 4 22 1 32 -1 23 -4z m-502 -85 c42 -56 74 -151 73 -211 0 -23 -8 -67 -18
-97 l-18 -55 -7 60 c-12 106 -47 238 -82 308 -19 37 -34 70 -34 73 0 14 55
-35 86 -78z m4604 59 c0 -2 -12 -14 -27 -28 l-28 -24 24 28 c23 25 31 32 31
24z m-3882 -102 c23 -47 42 -89 42 -93 0 -5 -11 -23 -24 -41 l-24 -32 -46 96
-46 97 21 29 c11 16 24 29 27 29 4 0 27 -38 50 -85z m3179 57 l21 -28 -47 -97
-46 -98 -26 33 -26 33 43 93 c24 50 47 92 52 92 4 0 18 -13 29 -28z m-3707
-73 c72 -24 222 -30 273 -10 15 6 27 9 27 7 0 -2 -20 -42 -45 -88 -104 -196
-138 -388 -100 -571 8 -40 46 -164 85 -277 38 -112 70 -213 70 -225 -1 -11 -8
0 -17 25 -34 99 -118 197 -205 241 -24 12 -44 22 -46 24 -1 1 5 31 14 66 24
93 14 193 -26 275 -33 67 -102 144 -152 170 -22 11 -28 20 -22 32 57 132 59
245 6 350 l-33 64 53 -30 c29 -17 82 -40 118 -53z m825 71 c3 -5 2 -10 -4 -10
-5 0 -13 5 -16 10 -3 6 -2 10 4 10 5 0 13 -4 16 -10z m-1049 -135 c24 -76 47
-280 29 -263 -8 8 -28 98 -50 228 -8 47 -17 99 -21 115 -9 52 14 8 42 -80z
m4628 -27 c-34 -189 -46 -240 -56 -230 -24 24 47 362 76 362 2 0 -7 -60 -20
-132z m-634 73 l20 -30 -47 -95 c-26 -53 -50 -96 -53 -96 -4 0 -13 15 -22 33
-14 31 -14 35 29 125 24 50 46 92 48 92 2 0 13 -13 25 -29z m-2956 -49 c-87
-81 -137 -172 -158 -287 -4 -22 -17 -55 -28 -72 -16 -27 -26 -33 -53 -33 -19
0 -46 -5 -61 -10 -15 -6 -29 -8 -32 -6 -8 9 39 149 74 221 54 111 133 184 231
215 82 27 84 25 27 -28z m2618 1 c63 -34 129 -106 166 -179 29 -58 86 -223 79
-230 -2 -2 -19 1 -38 6 -18 6 -46 10 -61 10 -37 0 -64 41 -82 129 -20 94 -57
162 -133 241 -35 35 -63 65 -63 66 0 8 94 -22 132 -43z m655 41 c-3 -3 -12 -4
-19 -1 -8 3 -5 6 6 6 11 1 17 -2 13 -5z m-3142 -106 c-15 -131 -62 -236 -135
-302 -46 -41 -59 -42 -78 -3 -25 52 22 195 89 272 36 40 105 95 121 95 6 0 7
-25 3 -62z m153 -26 c31 -72 35 -120 18 -202 -17 -78 -53 -148 -118 -224 -44
-51 -58 -57 -58 -23 -1 12 -9 37 -19 56 -22 41 -14 101 22 158 43 70 69 145
80 234 l11 89 22 -21 c12 -12 31 -42 42 -67z m2057 -107 c9 -28 32 -78 51
-113 46 -86 51 -123 21 -195 l-24 -58 -46 51 c-137 152 -164 373 -59 483 l27
28 7 -73 c4 -40 14 -96 23 -123z m110 165 c93 -64 158 -183 159 -290 1 -63 0
-65 -25 -68 -76 -9 -188 209 -189 366 0 28 3 28 55 -8z m-2816 -185 c1 -11 -3
-26 -8 -34 -10 -15 -28 10 -91 125 -34 61 -34 61 -16 89 l19 29 48 -95 c26
-52 48 -103 48 -114z m882 66 c38 -67 54 -103 48 -112 -7 -10 -11 -11 -16 -3
-41 61 -181 233 -190 234 -7 0 -13 4 -13 9 0 5 26 1 58 -10 57 -19 57 -20 113
-118z m2494 110 c15 -29 14 -32 -42 -127 -54 -92 -57 -95 -69 -73 -10 20 -8
32 21 89 18 36 40 82 48 103 9 20 18 37 21 37 3 0 12 -13 21 -29z m309 5 c66
-28 99 -102 76 -173 -25 -76 -94 -152 -117 -129 -3 3 9 38 26 76 26 55 32 79
27 105 -9 46 -36 61 -75 40 -27 -13 -31 -13 -51 3 -29 24 -20 55 23 76 40 19
49 20 91 2z m153 -73 c-2 -16 -4 -3 -4 27 0 30 2 43 4 28 2 -16 2 -40 0 -55z
m-2894 -29 c22 -46 28 -67 20 -75 -7 -7 -22 10 -52 61 -47 82 -49 90 -20 83
13 -4 32 -29 52 -69z m1447 70 c0 -4 -19 -39 -42 -80 -32 -56 -45 -71 -54 -63
-10 8 -6 24 19 74 28 56 41 69 70 74 4 0 7 -2 7 -5z m-100 -64 c-20 -38 -23
-41 -37 -27 -14 14 -13 18 3 41 17 22 42 37 52 30 2 -1 -6 -21 -18 -44z
m-1463 -65 c88 -113 86 -111 73 -135 -10 -19 -18 -11 -80 89 -38 61 -72 121
-75 133 -9 29 -4 24 82 -87z m3050 83 c-3 -8 -6 -5 -6 6 -1 11 2 17 5 13 3 -3
4 -12 1 -19z m-3953 -105 c41 -70 46 -87 40 -117 -3 -20 -10 -36 -14 -36 -7 0
-115 174 -122 196 -1 5 3 25 10 43 14 41 10 46 86 -86z m1121 107 c3 -5 1 -10
-4 -10 -6 0 -11 5 -11 10 0 6 2 10 4 10 3 0 8 -4 11 -10z m1417 -91 c-27 -41
-57 -89 -67 -106 -22 -38 -31 -41 -40 -13 -5 15 14 45 72 120 88 113 109 113
35 -1z m1345 59 c-3 -8 -6 -5 -6 6 -1 11 2 17 5 13 3 -3 4 -12 1 -19z m-2601
-172 c19 -118 27 -192 22 -207 -5 -12 -10 -20 -12 -18 -6 6 -66 361 -66 387 0
12 6 22 13 22 9 0 22 -57 43 -184z m84 59 c12 -101 9 -155 -8 -155 -5 0 -16
46 -26 103 -10 56 -20 114 -23 130 -5 24 -2 27 19 27 24 0 25 -3 38 -105z
m736 88 c-3 -10 -13 -69 -22 -130 -10 -62 -21 -113 -26 -113 -23 0 -27 43 -13
142 8 56 15 106 15 111 0 4 12 7 26 7 19 0 24 -4 20 -17z m-657 -48 c9 -42 10
-59 0 -76 -16 -30 -25 -12 -34 69 -6 50 -4 62 7 62 10 0 19 -19 27 -55z m557
38 c-2 -10 -7 -44 -11 -76 -6 -49 -9 -56 -21 -46 -17 14 -18 36 -3 95 7 27 17
44 26 44 9 0 13 -7 9 -17z m-781 -260 c23 -137 35 -232 30 -250 -5 -22 -8 -25
-15 -12 -14 24 -78 243 -104 357 l-24 104 31 35 c31 35 31 35 38 12 4 -13 24
-124 44 -246z m330 258 c3 -5 -8 -19 -25 -31 -24 -17 -30 -18 -30 -6 0 8 -3
21 -6 30 -5 12 1 16 24 16 17 0 33 -4 37 -9z m365 -14 c0 -35 -11 -40 -37 -15
-31 29 -29 38 7 38 25 0 30 -4 30 -23z m380 -55 c0 -29 -48 -220 -87 -344 -64
-206 -71 -137 -18 172 19 113 38 216 41 230 l6 25 29 -33 c16 -18 29 -40 29
-50z m1647 36 c-3 -7 -5 -2 -5 12 0 14 2 19 5 13 2 -7 2 -19 0 -25z m-1413
-160 l-47 -93 -13 39 c-14 39 -14 40 43 135 l58 95 3 -41 c2 -33 -6 -60 -44
-135z m-2570 49 c34 -58 56 -107 54 -120 -2 -17 -20 6 -71 91 -44 71 -66 119
-63 129 8 21 11 18 80 -100z m3510 -21 c-51 -86 -71 -112 -77 -101 -11 21 121
241 136 226 7 -7 -11 -46 -59 -125z m-1737 67 c12 -21 31 -71 43 -111 38 -126
19 -250 -53 -347 -19 -25 -34 -13 -71 54 -41 76 -51 150 -32 240 16 76 68 201
84 201 4 0 18 -17 29 -37z m-168 -74 c-33 -98 -39 -201 -19 -282 12 -46 8
-165 -5 -188 -4 -5 -46 -36 -93 -68 -48 -32 -93 -66 -101 -75 -24 -29 -31 -6
-31 103 0 201 71 386 203 527 38 41 71 73 72 72 2 -2 -10 -42 -26 -89z m365
-29 c63 -82 92 -138 127 -241 33 -98 49 -248 35 -323 l-7 -37 -42 34 c-23 18
-72 52 -109 76 -63 40 -67 45 -74 88 -4 25 -3 78 2 117 16 137 10 244 -20 322
-14 39 -26 75 -26 80 0 13 69 -56 114 -116z m233 98 c-3 -8 -6 -5 -6 6 -1 11
2 17 5 13 3 -3 4 -12 1 -19z m-2176 -190 c19 -27 25 -58 12 -58 -16 1 -143
189 -143 213 0 46 14 36 62 -46 27 -45 58 -94 69 -109z m3569 149 c0 -23 -144
-215 -148 -196 -1 8 28 65 64 127 64 108 83 124 84 69z m-3974 -75 c57 -69 84
-144 84 -235 0 -40 -6 -90 -12 -112 -12 -39 -12 -39 -19 55 -4 52 -16 121 -27
152 -24 67 -77 151 -121 192 -17 17 -31 34 -31 39 0 19 87 -43 126 -91z m4319
27 c-80 -85 -143 -262 -132 -366 7 -61 -8 -44 -23 27 -30 143 37 307 159 385
52 33 50 12 -4 -46z m-2805 -40 c13 -55 48 -171 77 -257 55 -158 75 -236 55
-217 -6 6 -58 101 -117 212 -80 152 -105 208 -100 225 15 55 48 138 54 138 4
0 18 -45 31 -101z m1290 5 l21 -62 -113 -213 c-89 -167 -114 -208 -116 -187
-2 15 12 69 32 120 38 102 83 252 111 367 16 66 19 72 31 56 7 -10 23 -46 34
-81z m1257 64 c-3 -8 -6 -5 -6 6 -1 11 2 17 5 13 3 -3 4 -12 1 -19z m-2812 3
c3 -5 2 -12 -3 -15 -5 -3 -9 1 -9 9 0 17 3 19 12 6z m1765 2 c0 -5 -19 -64
-42 -133 l-41 -125 -15 35 c-14 34 -13 37 34 132 42 85 64 116 64 91z m1321
-160 c-22 -66 -57 -155 -78 -199 l-38 -79 -3 53 c-4 70 12 144 47 219 29 61
103 153 108 136 2 -5 -14 -63 -36 -130z m-4420 100 c13 -16 12 -17 -3 -4 -17
13 -22 21 -14 21 2 0 10 -8 17 -17z m789 2 c0 -8 -4 -15 -10 -15 -5 0 -10 7
-10 15 0 8 5 15 10 15 6 0 10 -7 10 -15z m2855 6 c3 -5 1 -12 -5 -16 -5 -3
-10 1 -10 9 0 18 6 21 15 7z m353 -158 c-72 -85 -73 -86 -76 -56 -2 25 11 48
70 127 l73 96 3 -41 c3 -37 -2 -46 -70 -126z m-868 127 c10 -19 5 -47 -42
-225 l-10 -40 -23 29 -23 29 34 101 c43 127 42 126 48 126 3 0 10 -9 16 -20z
m-2460 -15 c-14 -8 -36 -14 -50 -14 -24 1 -24 1 5 14 17 8 39 14 50 14 18 0
17 -1 -5 -14z m3112 -38 l42 -13 12 -79 c7 -44 16 -161 20 -260 l7 -179 -70
71 c-39 39 -141 124 -227 187 -150 112 -155 117 -145 142 6 18 6 46 -1 87 -14
74 -5 87 43 63 48 -22 92 -20 157 9 l55 23 32 -19 c18 -11 51 -26 75 -32z m13
38 c29 -13 29 -13 5 -14 -14 0 -36 6 -50 14 -22 13 -23 14 -5 14 11 0 34 -6
50 -14z m-2892 -42 c-7 -2 -21 -2 -30 0 -10 3 -4 5 12 5 17 0 24 -2 18 -5z
m387 -119 l29 -109 -27 -22 c-15 -13 -30 -23 -33 -23 -3 0 -11 52 -18 115 -9
90 -9 119 1 134 7 11 14 19 16 17 1 -2 16 -53 32 -112z m-293 84 c-3 -8 -6 -5
-6 6 -1 11 2 17 5 13 3 -3 4 -12 1 -19z m2181 5 c11 -21 -7 -243 -19 -243 -4
0 -20 10 -34 23 l-26 22 27 108 c14 59 30 107 35 107 5 0 12 -8 17 -17z
m-2777 -10 c13 -16 12 -17 -3 -4 -17 13 -22 21 -14 21 2 0 10 -8 17 -17z m645
-29 c5 -34 3 -48 -7 -55 -18 -11 -26 10 -21 61 5 54 19 51 28 -6z m1575 23
c-10 -9 -11 -8 -5 6 3 10 9 15 12 12 3 -3 0 -11 -7 -18z m779 -44 c0 -44 -12
-55 -28 -27 -12 21 7 102 19 82 5 -7 9 -32 9 -55z m-2975 -29 c62 -71 66 -78
64 -120 -2 -24 -6 -44 -10 -44 -3 0 -26 22 -51 48 -34 37 -48 61 -57 102 -18
82 -19 90 -16 90 2 0 33 -34 70 -76z m3621 -16 c-14 -52 -24 -71 -64 -108
l-47 -45 -3 48 c-3 45 0 50 60 121 36 43 64 69 66 61 2 -8 -4 -43 -12 -77z
m101 60 c-3 -8 -6 -5 -6 6 -1 11 2 17 5 13 3 -3 4 -12 1 -19z m-3560 -20 c-3
-8 -6 -5 -6 6 -1 11 2 17 5 13 3 -3 4 -12 1 -19z m213 -1 c0 -31 -62 -157 -89
-182 -26 -23 -54 -12 -59 25 -6 37 104 180 139 180 5 0 9 -10 9 -23z m-303
-19 c-3 -7 -5 -2 -5 12 0 14 2 19 5 13 2 -7 2 -19 0 -25z m490 10 c-3 -8 -6
-5 -6 6 -1 11 2 17 5 13 3 -3 4 -12 1 -19z m224 -5 c0 -16 2 -37 4 -48 2 -11
5 -47 8 -80 5 -54 3 -62 -15 -74 -25 -15 -25 -16 -32 39 -11 88 -10 159 4 174
19 24 30 19 31 -11z m2034 -108 c-4 -55 -8 -101 -10 -103 -2 -2 -13 2 -25 8
-21 11 -22 16 -15 93 4 45 9 89 10 97 2 8 4 21 4 29 1 11 6 9 22 -5 20 -18 21
-25 14 -119z m-2784 108 c13 -16 12 -17 -3 -4 -17 13 -22 21 -14 21 2 0 10 -8
17 -17z m1136 -163 c42 -80 96 -180 119 -222 23 -43 41 -78 40 -78 -2 0 -59
72 -127 160 -68 88 -127 160 -131 160 -4 0 -8 37 -8 83 1 101 0 101 107 -103z
m1331 104 l-3 -59 -5 67 c-3 37 -1 63 3 59 4 -4 7 -35 5 -67z m1289 39 c-3
-10 -5 -4 -5 12 0 17 2 24 5 18 2 -7 2 -21 0 -30z m-4110 -25 c-3 -8 -6 -5 -6
6 -1 11 2 17 5 13 3 -3 4 -12 1 -19z m470 -30 c-3 -7 -5 -2 -5 12 0 14 2 19 5
13 2 -7 2 -19 0 -25z m566 0 c4 -18 7 -62 8 -97 2 -58 0 -65 -22 -77 -13 -7
-27 -13 -31 -14 -5 0 -8 41 -8 92 0 71 4 95 17 110 23 25 30 23 36 -14z m2177
-83 c3 -114 5 -108 -30 -90 -28 14 -30 20 -26 53 3 20 6 60 7 87 3 64 7 71 30
49 14 -15 18 -37 19 -99z m897 53 c-3 -7 -5 -2 -5 12 0 14 2 19 5 13 2 -7 2
-19 0 -25z m-3163 -175 c-10 -7 -21 -13 -26 -13 -4 0 -8 36 -8 79 0 71 2 82
23 96 l22 15 3 -82 c2 -69 0 -85 -14 -95z m2344 68 c2 -44 0 -81 -3 -81 -4 0
-15 5 -26 10 -16 9 -19 22 -19 97 l0 85 23 -14 c19 -14 22 -25 25 -97z m-3281
62 c-3 -10 -5 -4 -5 12 0 17 2 24 5 18 2 -7 2 -21 0 -30z m3023 -100 c62 -42
145 -82 280 -138 205 -84 287 -132 371 -215 41 -41 84 -93 94 -115 l18 -39
-59 -54 c-32 -30 -96 -83 -141 -118 l-82 -65 -155 153 c-198 194 -249 223
-325 184 -63 -33 -80 -93 -112 -403 l-23 -222 -85 -20 c-96 -22 -348 -61 -399
-61 -37 0 -37 -2 0 125 26 89 63 163 182 357 174 286 259 483 287 666 l13 83
45 -44 c25 -24 66 -58 91 -74z m-2573 40 c-2 -16 -4 -5 -4 22 0 28 2 40 4 28
2 -13 2 -35 0 -50z m862 -14 c28 -182 102 -353 287 -659 142 -236 182 -322
204 -439 l8 -44 -82 6 c-82 7 -257 36 -377 63 l-66 15 -1 45 c-2 83 -43 428
-57 479 -17 61 -58 104 -108 112 -64 10 -118 -26 -286 -194 l-155 -153 -71 55
c-103 79 -205 174 -205 192 0 24 84 136 132 175 75 62 144 98 346 184 192 82
324 157 381 218 14 14 27 26 31 26 4 0 12 -37 19 -81z m-949 -48 c0 -35 -2
-62 -4 -60 -2 2 -18 44 -35 92 l-31 88 35 -28 c33 -27 35 -31 35 -92z m1627
99 c11 -16 10 -21 -7 -30 -18 -10 -20 -8 -20 20 0 35 10 38 27 10z m233 -16
c0 -26 -9 -31 -28 -12 -8 8 -8 17 -1 30 13 24 29 14 29 -18z m-1350 -48 c0
-74 0 -74 -31 -85 l-31 -11 6 68 c5 50 12 71 28 85 11 9 22 17 24 17 2 0 4
-33 4 -74z m2979 -20 c-17 -47 -32 -86 -34 -86 -1 0 -2 30 -1 66 2 60 5 69 30
91 16 13 30 22 32 20 3 -2 -9 -43 -27 -91z m-3064 -43 c-4 -27 -13 -47 -25
-53 -27 -15 -30 -13 -30 19 0 36 16 80 38 105 17 18 17 18 20 -4 2 -13 1 -43
-3 -67z m1300 59 c17 0 40 6 52 14 20 13 26 12 57 -8 27 -18 38 -36 56 -92 26
-84 62 -149 92 -171 13 -8 40 -15 61 -15 47 0 49 13 -40 -205 -101 -248 -161
-429 -174 -528 -6 -49 -9 -97 -6 -108 5 -18 -1 -19 -92 -19 l-98 0 -6 98 c-7
117 -30 200 -109 392 -79 192 -138 346 -138 359 0 6 14 11 31 11 69 0 115 56
159 192 16 52 28 71 52 87 27 16 34 17 52 6 12 -7 35 -13 51 -13z m1272 -4
c-3 -7 -5 -2 -5 12 0 14 2 19 5 13 2 -7 2 -19 0 -25z m79 -29 c7 -19 13 -47
13 -62 1 -25 -2 -27 -21 -21 -30 9 -38 22 -38 64 0 19 -3 46 -7 60 -6 24 -6
24 17 9 13 -9 29 -31 36 -50z m-1882 -172 c76 -98 143 -195 151 -217 8 -22 12
-40 10 -40 -2 0 -63 68 -135 150 -72 83 -135 150 -139 150 -8 0 -51 133 -51
155 0 14 17 -6 164 -198z m1215 132 c-18 -65 -27 -79 -112 -172 -51 -56 -114
-128 -141 -159 -27 -32 -51 -56 -54 -54 -11 12 47 106 143 231 132 171 175
225 180 225 2 0 -5 -32 -16 -71z m-2578 -36 c66 -70 101 -146 107 -237 l5 -71
-20 25 c-12 15 -22 46 -25 78 -7 77 -66 190 -131 248 -41 37 -45 43 -19 28 19
-10 56 -43 83 -71z m3839 83 c0 -2 -8 -10 -17 -17 -16 -13 -17 -12 -4 4 13 16
21 21 21 13z m-3869 -120 c37 -49 73 -134 67 -162 -2 -11 -22 10 -59 62 -63
87 -129 194 -129 208 0 15 84 -59 121 -108z m542 59 c-5 -47 -8 -52 -44 -72
-44 -24 -46 -21 -22 39 13 34 62 93 69 85 1 -1 0 -25 -3 -52z m2832 -21 c7
-17 16 -41 20 -54 l7 -23 -43 24 c-43 24 -44 26 -47 79 l-3 55 26 -25 c15 -14
33 -39 40 -56z m498 23 c-28 -30 -60 -71 -71 -93 -25 -49 -52 -139 -52 -175 0
-24 -24 -58 -35 -48 -2 3 0 35 5 72 10 69 43 146 88 205 21 28 98 92 110 92 3
0 -18 -24 -45 -53z m66 -23 c-52 -87 -151 -225 -156 -220 -7 7 18 89 42 137
22 42 142 166 152 156 2 -3 -15 -36 -38 -73z m-2199 19 c-36 -112 -93 -173
-143 -154 -65 25 -47 67 61 140 48 32 89 57 90 56 2 -2 -1 -21 -8 -42z m538
-76 c47 -51 -9 -105 -72 -70 -33 19 -81 102 -92 162 l-7 34 74 -51 c41 -27 85
-61 97 -75z m-1898 99 c0 -2 -8 -10 -17 -17 -16 -13 -17 -12 -4 4 13 16 21 21
21 13z m55 -92 c-8 -20 -15 -38 -15 -39 0 -1 -25 -22 -56 -45 -53 -40 -55 -40
-40 -13 19 35 104 133 117 133 5 0 2 -16 -6 -36z m3087 -83 l31 -44 -56 39
c-31 21 -60 50 -65 64 -6 14 -13 34 -17 45 -11 28 69 -49 107 -104z m-1092 76
c0 -2 -10 -12 -22 -23 l-23 -19 19 23 c18 21 26 27 26 19z m-965 -277 c65 -74
125 -137 133 -138 14 -4 74 -123 66 -132 -3 -2 -56 47 -118 109 -94 93 -122
129 -160 201 -39 74 -57 115 -42 99 2 -2 56 -65 121 -139z m1048 123 c-4 -10
-27 -54 -52 -98 -35 -61 -73 -106 -159 -190 -105 -101 -113 -107 -97 -70 9 22
21 52 27 68 5 15 16 27 24 27 7 0 69 63 136 140 68 77 124 140 125 140 1 0 -1
-8 -4 -17z m-1527 -195 c13 -26 24 -95 48 -318 3 -25 8 -78 12 -118 l6 -72
-62 22 -63 23 3 90 c2 50 4 113 5 140 2 28 3 100 4 162 1 97 3 112 16 106 9
-3 23 -19 31 -35z m1938 -219 l6 -245 -65 -21 -64 -21 4 27 c3 14 14 118 26
230 11 113 25 216 31 230 12 34 40 64 48 54 4 -5 10 -118 14 -254z m-2166 40
c-45 -85 -82 -155 -84 -157 -1 -2 -24 11 -52 28 l-50 30 132 129 c72 71 132
128 134 127 1 -2 -35 -72 -80 -157z m2510 -104 c-7 -7 -29 -22 -49 -34 l-37
-21 -34 67 c-19 38 -56 109 -83 158 l-49 90 133 -124 c105 -99 129 -127 119
-136z m-2405 8 c-3 -82 -7 -149 -8 -151 -5 -6 -104 40 -115 53 -8 10 -3 26 18
62 16 26 46 78 66 116 20 37 39 67 41 67 2 0 1 -66 -2 -147z m2197 32 c24 -44
49 -90 57 -102 14 -21 12 -23 -47 -53 -34 -17 -64 -30 -66 -28 -2 2 -6 71 -10
154 -7 169 -9 168 66 29z m-820 -31 c-42 -75 -117 -170 -127 -160 -2 1 4 25
12 51 11 37 31 66 87 122 40 40 73 73 74 73 1 0 -20 -39 -46 -86z m-569 -81
c13 -16 12 -17 -3 -4 -10 7 -18 15 -18 17 0 8 8 3 21 -13z m96 -221 c5 -38 3
-42 -15 -42 -23 0 -27 10 -37 85 l-6 50 26 -26 c17 -17 29 -41 32 -67z m330 6
c-3 -7 -5 -2 -5 12 0 14 2 19 5 13 2 -7 2 -19 0 -25z m40 10 c-3 -8 -6 -5 -6
6 -1 11 2 17 5 13 3 -3 4 -12 1 -19z"/>
<path d="M3897 8684 c-8 -8 1 -24 14 -24 5 0 9 7 9 15 0 15 -12 20 -23 9z"/>
<path d="M3812 7603 c2 -10 10 -18 18 -18 8 0 16 8 18 18 2 12 -3 17 -18 17
-15 0 -20 -5 -18 -17z"/>
<path d="M3813 7513 c-21 -7 -15 -33 7 -33 11 0 20 6 20 14 0 18 -11 25 -27
19z"/>
<path d="M6135 6777 c-28 -67 -37 -128 -33 -216 3 -74 9 -99 36 -153 17 -35
42 -74 56 -87 l25 -23 -26 63 c-46 113 -43 250 8 377 16 38 4 65 -30 70 -16 3
-25 -5 -36 -31z"/>
<path d="M3817 6603 c-4 -3 -7 -15 -7 -25 0 -22 45 -26 53 -4 9 24 -28 47 -46
29z"/>
<path d="M3793 6463 c-21 -8 -16 -53 6 -53 10 0 21 6 24 14 7 18 -14 45 -30
39z"/>
<path d="M4909 6432 c-41 -37 -50 -102 -19 -150 15 -24 27 -32 43 -30 17 2 22
9 21 33 -1 17 -5 40 -9 52 -5 15 -1 27 14 42 26 26 45 27 69 0 30 -31 33 -70
17 -192 -8 -62 -15 -128 -14 -147 l1 -35 14 34 c21 46 64 241 64 286 0 47 -22
98 -51 119 -14 9 -43 16 -71 16 -38 0 -54 -6 -79 -28z"/>
<path d="M4933 6115 c-7 -20 2 -29 21 -22 9 4 13 13 10 22 -8 19 -23 19 -31 0z"/>
<path d="M5135 5686 c-18 -13 -18 -17 -5 -71 18 -74 5 -124 -59 -230 -85 -140
-104 -184 -109 -257 -3 -42 0 -79 8 -98 16 -40 29 -38 21 3 -16 72 14 147 110
278 69 94 101 169 106 248 3 50 0 74 -14 100 -21 41 -32 46 -58 27z"/>
<path d="M5616 5685 c-37 -38 -34 -173 7 -256 14 -30 49 -85 77 -124 84 -115
104 -160 105 -238 0 -56 2 -64 12 -50 40 54 23 174 -39 277 -117 198 -133 248
-106 339 11 35 10 41 -7 53 -24 18 -30 18 -49 -1z"/>
<path d="M7694 5116 c-83 -36 -59 -166 30 -166 49 0 65 8 82 42 40 78 -33 158
-112 124z"/>
<path d="M7478 4952 c-30 -18 -58 -67 -58 -102 0 -30 25 -75 56 -99 66 -52
175 -6 189 79 8 47 -23 111 -62 129 -35 16 -94 13 -125 -7z"/>
<path d="M4775 4339 c-212 -71 -439 -196 -499 -276 l-18 -25 31 16 c17 9 55
30 83 48 162 95 337 166 479 193 78 14 98 25 99 51 0 15 -22 34 -39 34 -9 -1
-70 -19 -136 -41z"/>
<path d="M5307 3976 c-78 -28 -133 -86 -161 -169 -34 -100 -10 -194 67 -271
59 -59 104 -76 193 -76 137 1 240 98 261 246 6 44 5 47 -13 39 -61 -26 -90
-28 -127 -10 -88 41 -104 164 -28 221 38 29 -120 45 -192 20z"/>
<path d="M3325 3282 c-44 -27 -58 -61 -53 -127 5 -57 41 -124 80 -149 30 -18
29 -1 -3 69 -27 57 -31 73 -23 103 12 48 34 60 79 43 28 -10 39 -10 50 -1 22
18 18 36 -11 59 -33 26 -79 27 -119 3z"/>
<path d="M6783 2080 c-39 -24 -53 -48 -53 -95 0 -73 45 -115 120 -115 86 0
138 98 91 173 -35 58 -100 73 -158 37z"/>
<path d="M6014 1938 c-24 -11 -44 -48 -44 -79 0 -30 53 -79 85 -79 35 0 85 50
85 85 0 34 -50 85 -82 84 -13 0 -33 -5 -44 -11z"/>
<path d="M5893 1683 c-12 -2 -33 -16 -47 -30 -84 -84 -23 -223 93 -210 124 14
150 185 36 233 -35 14 -42 15 -82 7z"/>
<path d="M4147 2220 c-51 -40 -23 -120 41 -120 37 0 65 31 64 71 -2 59 -59 85
-105 49z"/>
<path d="M4622 2131 c-8 -5 -12 -21 -10 -37 2 -23 9 -30 30 -32 19 -2 30 3 38
17 21 40 -20 77 -58 52z"/>
<path d="M4703 1940 c-40 -16 -57 -85 -30 -121 33 -43 84 -49 123 -15 22 18
28 32 27 62 -2 64 -58 99 -120 74z"/>
</g>
</svg>
